<svg xmlns="http://www.w3.org/2000/svg" width="1120" height="560" viewBox="0 0 1120 560" role="img" aria-labelledby="title desc">
<title id="title">Instruction eval overview</title>
<desc id="desc">Headline answers across GPT, external models, empty baseline, and reference instruction bundles.</desc>
<style>
text{font-family:-apple-system,BlinkMacSystemFont,'Segoe UI',sans-serif;letter-spacing:0}
.title{font-size:30px;font-weight:700;fill:#111827}
.subtitle{font-size:15px;fill:#64748b}
.label{font-size:14px;font-weight:700;fill:#111827}
.small{font-size:12px;fill:#64748b}
.value{font-size:13px;font-weight:700;fill:#111827}
.axis{font-size:11px;fill:#64748b}
.cell{font-size:11px;font-weight:700;fill:#111827}
</style>
<rect x="0" y="0" width="1120" height="560" fill="#f8fafc"/>
<text x="40.0" y="56.0" class="title">Instruction eval overview</text>
<text x="40.0" y="84.0" class="subtitle">Read left to right: improvement, transfer, baseline context, and reference-prompt contrast.</text>
<rect x="40.0" y="122.0" width="248.0" height="150.0" rx="10.0" fill="#ffffff" stroke="#cbd5e1"/>
<rect x="64.0" y="146.0" width="38.0" height="8.0" rx="4.0" fill="#2563eb"/>
<text x="64.0" y="180.0" class="label">GPT improved</text>
<text x="64.0" y="214.0" class="value">42 -&gt; 49 hard gates</text>
<text x="64.0" y="242.0" class="small">quality 23/14/12, avg +14.4</text>
<rect x="310.0" y="122.0" width="248.0" height="150.0" rx="10.0" fill="#ffffff" stroke="#cbd5e1"/>
<rect x="334.0" y="146.0" width="38.0" height="8.0" rx="4.0" fill="#16a34a"/>
<text x="334.0" y="180.0" class="label">Other models improved</text>
<text x="334.0" y="214.0" class="value">5/5 hard-gate lifts</text>
<text x="334.0" y="242.0" class="small">total lift +23; quality mixed</text>
<rect x="580.0" y="122.0" width="248.0" height="150.0" rx="10.0" fill="#ffffff" stroke="#cbd5e1"/>
<rect x="604.0" y="146.0" width="38.0" height="8.0" rx="4.0" fill="#f59e0b"/>
<text x="604.0" y="180.0" class="label">No-instruction context</text>
<text x="604.0" y="214.0" class="value">current beats empty on 6/6 models</text>
<text x="604.0" y="242.0" class="small">hard-gate lift range +8..+29</text>
<rect x="850.0" y="122.0" width="248.0" height="150.0" rx="10.0" fill="#ffffff" stroke="#cbd5e1"/>
<rect x="874.0" y="146.0" width="38.0" height="8.0" rx="4.0" fill="#be123c"/>
<text x="874.0" y="180.0" class="label">Reference prompts</text>
<text x="874.0" y="214.0" class="value">12/12 aggregate pairs</text>
<text x="874.0" y="242.0" class="small">current wins overall; cases still regress</text>
<rect x="40.0" y="304.0" width="1040.0" height="150.0" rx="10.0" fill="#ffffff" stroke="#cbd5e1"/>
<text x="72.0" y="342.0" class="label">Bottom line</text>
<text x="72.0" y="374.0" class="value">GPT is the cleanest win: 49/49 hard gates and +14.4 average quality delta versus previous current.</text>
<text x="72.0" y="402.0" class="value">GLM is the closest external model on our current instructions: 46/49 hard gates, 20/6/23 quality split vs GPT, avg -7.0.</text>
<text x="72.0" y="430.0" class="value">The remaining risk is case-level: references and older instructions still win specific no-op, architecture, dependency, and review cases.</text>
<line x1="32.0" y1="514.0" x2="1088.0" y2="514.0" stroke="#e5e7eb" stroke-width="1"/>
<text x="32.0" y="532.0" class="small">Source: saved summaries and GPT-5.5 judged quality comparisons</text>
<text x="1088.0" y="532.0" class="small" text-anchor="end">Generated by scripts/build_readme_infographics.py</text>
</svg>
