<svg xmlns="http://www.w3.org/2000/svg" width="1120" height="560" viewBox="0 0 1120 560" role="img" aria-labelledby="title desc">
<title id="title">Instruction eval overview</title>
<desc id="desc">Headline answers across fresh v4.13 GPT/GLM/DeepSeek rows plus saved v4.12 context.</desc>
<style>
text{font-family:-apple-system,BlinkMacSystemFont,'Segoe UI',sans-serif;letter-spacing:0}
.title{font-size:30px;font-weight:700;fill:#111827}
.subtitle{font-size:15px;fill:#64748b}
.label{font-size:14px;font-weight:700;fill:#111827}
.small{font-size:12px;fill:#64748b}
.value{font-size:13px;font-weight:700;fill:#111827}
.axis{font-size:11px;fill:#64748b}
.cell{font-size:11px;font-weight:700;fill:#111827}
</style>
<rect x="0" y="0" width="1120" height="560" fill="#f8fafc"/>
<text x="40.0" y="56.0" class="title">Instruction eval overview</text>
<text x="40.0" y="84.0" class="subtitle">Read left to right: v4.13 improvement, external transfer, model gap, and reference-prompt context.</text>
<rect x="40.0" y="122.0" width="248.0" height="150.0" rx="10.0" fill="#ffffff" stroke="#cbd5e1"/>
<rect x="64.0" y="146.0" width="38.0" height="8.0" rx="4.0" fill="#2563eb"/>
<text x="64.0" y="180.0" class="label">GPT quality improved</text>
<text x="64.0" y="214.0" class="value">49 -&gt; 49 hard gates</text>
<text x="64.0" y="242.0" class="small">quality 30/13/6, avg +1.5</text>
<rect x="310.0" y="122.0" width="248.0" height="150.0" rx="10.0" fill="#ffffff" stroke="#cbd5e1"/>
<rect x="334.0" y="146.0" width="38.0" height="8.0" rx="4.0" fill="#dc2626"/>
<text x="334.0" y="180.0" class="label">External transfer mixed</text>
<text x="334.0" y="214.0" class="value">1/3 hard-gate lifts</text>
<text x="334.0" y="242.0" class="small">GLM slight up; DS up; DSt down</text>
<rect x="580.0" y="122.0" width="248.0" height="150.0" rx="10.0" fill="#ffffff" stroke="#cbd5e1"/>
<rect x="604.0" y="146.0" width="38.0" height="8.0" rx="4.0" fill="#f59e0b"/>
<text x="604.0" y="180.0" class="label">Model gap vs GPT</text>
<text x="604.0" y="214.0" class="value">GLM current gap -7.1</text>
<text x="604.0" y="242.0" class="small">gap -0.2; DS gaps still large</text>
<rect x="850.0" y="122.0" width="248.0" height="150.0" rx="10.0" fill="#ffffff" stroke="#cbd5e1"/>
<rect x="874.0" y="146.0" width="38.0" height="8.0" rx="4.0" fill="#be123c"/>
<text x="874.0" y="180.0" class="label">Reference context</text>
<text x="874.0" y="214.0" class="value">12/12 aggregate pairs</text>
<text x="874.0" y="242.0" class="small">saved v4.12 cases expose regressions</text>
<rect x="40.0" y="304.0" width="1040.0" height="150.0" rx="10.0" fill="#ffffff" stroke="#cbd5e1"/>
<text x="72.0" y="342.0" class="label">Bottom line</text>
<text x="72.0" y="374.0" class="value">GPT is the cleanest v4.13 win: 49/49 hard gates and 30/13/6 quality split versus previous.</text>
<text x="72.0" y="402.0" class="value">GLM stays close but not better than GPT; DeepSeek Flash improves from previous, while DeepSeek thinking regresses.</text>
<text x="72.0" y="430.0" class="value">Grok v4.13 full rows are not included here; existing Grok charts are saved v4.12 empty/current context only.</text>
<line x1="32.0" y1="502.0" x2="1088.0" y2="502.0" stroke="#e5e7eb" stroke-width="1"/>
<text x="32.0" y="520.0" class="small">Scope: v4.13 OpenAI-judged GPT/GLM/DeepSeek saved outputs; Grok/reference/no-instruction charts use labeled v4.12 saved snapshots.</text>
<text x="32.0" y="532.0" class="small">Source: v4.13 saved summaries, OpenAI/Codex saved-quality judge, and labeled v4.12 reference context</text>
<text x="1088.0" y="532.0" class="small" text-anchor="end">Generated by scripts/build_readme_infographics.py</text>
</svg>
