<svg xmlns="http://www.w3.org/2000/svg" width="1120" height="570" viewBox="0 0 1120 570" role="img" aria-labelledby="title desc">
<title id="title">External model gap versus GPT</title>
<desc id="desc">OpenAI/Codex judge comparison of external saved outputs against GPT on previous and current instructions.</desc>
<style>
text{font-family:-apple-system,BlinkMacSystemFont,'Segoe UI',sans-serif;letter-spacing:0}
.title{font-size:30px;font-weight:700;fill:#111827}
.subtitle{font-size:15px;fill:#64748b}
.label{font-size:14px;font-weight:700;fill:#111827}
.small{font-size:12px;fill:#64748b}
.value{font-size:13px;font-weight:700;fill:#111827}
.axis{font-size:11px;fill:#64748b}
.cell{font-size:11px;font-weight:700;fill:#111827}
</style>
<rect x="0" y="0" width="1120" height="570" fill="#f8fafc"/>
<text x="40.0" y="56.0" class="title">External model gap versus GPT</text>
<text x="40.0" y="84.0" class="subtitle">Same judge, same 49 cases. Delta is external-model score minus GPT score; closer to zero is better for transfer.</text>
<rect x="40.0" y="112.0" width="1040.0" height="360.0" rx="10.0" fill="#ffffff" stroke="#cbd5e1"/>
<text x="72.0" y="148.0" class="axis">Model</text>
<text x="292.0" y="148.0" class="axis">Average quality delta versus GPT</text>
<text x="926.0" y="148.0" class="axis">Quality split</text>
<line x1="292.0" y1="176.0" x2="292.0" y2="394.0" stroke="#e5e7eb" stroke-width="1"/>
<text x="292.0" y="166.0" class="axis" text-anchor="middle">-60</text>
<line x1="498.7" y1="176.0" x2="498.7" y2="394.0" stroke="#e5e7eb" stroke-width="1"/>
<text x="498.7" y="166.0" class="axis" text-anchor="middle">-40</text>
<line x1="705.3" y1="176.0" x2="705.3" y2="394.0" stroke="#e5e7eb" stroke-width="1"/>
<text x="705.3" y="166.0" class="axis" text-anchor="middle">-20</text>
<line x1="912.0" y1="176.0" x2="912.0" y2="394.0" stroke="#e5e7eb" stroke-width="1"/>
<text x="912.0" y="166.0" class="axis" text-anchor="middle">0</text>
<line x1="912.0" y1="170.0" x2="912.0" y2="406.0" stroke="#94a3b8" stroke-width="1"/>
<rect x="64.0" y="176.0" width="990.0" height="64.0" rx="0.0" fill="#f8fafc"/>
<text x="72.0" y="206.0" class="label">GLM</text>
<text x="72.0" y="228.0" class="small">hard gates 46 -&gt; 46</text>
<rect x="292.0" y="196.0" width="620.0" height="10.0" rx="5.0" fill="#f1f5f9"/>
<line x1="840.7" y1="186.0" x2="838.6" y2="186.0" stroke="#94a3b8" stroke-width="1"/>
<circle cx="840.7" cy="186.0" r="7.0" fill="#94a3b8" stroke="#ffffff" stroke-width="2.0"/>
<circle cx="838.6" cy="186.0" r="8.0" fill="#2563eb" stroke="#ffffff" stroke-width="2.0"/>
<text x="840.7" y="172.0" class="axis" text-anchor="middle">-6.9</text>
<text x="838.6" y="212.0" class="value" text-anchor="middle">-7.1</text>
<rect x="692.0" y="184.0" width="70.0" height="28.0" rx="14.0" fill="#dc2626"/>
<text x="727.0" y="203.0" class="value" text-anchor="middle">-0.2</text>
<text x="926.0" y="196.0" class="value">current 21/5/23</text>
<text x="926.0" y="218.0" class="small">external / tie / GPT</text>
<text x="72.0" y="284.0" class="label">DeepSeek</text>
<text x="72.0" y="306.0" class="small">hard gates 25 -&gt; 35</text>
<rect x="292.0" y="274.0" width="620.0" height="10.0" rx="5.0" fill="#f1f5f9"/>
<line x1="358.1" y1="264.0" x2="547.2" y2="264.0" stroke="#94a3b8" stroke-width="1"/>
<circle cx="358.1" cy="264.0" r="7.0" fill="#94a3b8" stroke="#ffffff" stroke-width="2.0"/>
<circle cx="547.2" cy="264.0" r="8.0" fill="#2563eb" stroke="#ffffff" stroke-width="2.0"/>
<text x="358.1" y="250.0" class="axis" text-anchor="middle">-53.6</text>
<text x="547.2" y="290.0" class="value" text-anchor="middle">-35.3</text>
<rect x="692.0" y="262.0" width="70.0" height="28.0" rx="14.0" fill="#16a34a"/>
<text x="727.0" y="281.0" class="value" text-anchor="middle">+18.3</text>
<text x="926.0" y="274.0" class="value">current 1/2/46</text>
<text x="926.0" y="296.0" class="small">external / tie / GPT</text>
<rect x="64.0" y="332.0" width="990.0" height="64.0" rx="0.0" fill="#f8fafc"/>
<text x="72.0" y="362.0" class="label">DS thinking</text>
<text x="72.0" y="384.0" class="small">hard gates 33 -&gt; 28</text>
<rect x="292.0" y="352.0" width="620.0" height="10.0" rx="5.0" fill="#f1f5f9"/>
<line x1="506.9" y1="342.0" x2="415.0" y2="342.0" stroke="#94a3b8" stroke-width="1"/>
<circle cx="506.9" cy="342.0" r="7.0" fill="#94a3b8" stroke="#ffffff" stroke-width="2.0"/>
<circle cx="415.0" cy="342.0" r="8.0" fill="#2563eb" stroke="#ffffff" stroke-width="2.0"/>
<text x="506.9" y="328.0" class="axis" text-anchor="middle">-39.2</text>
<text x="415.0" y="368.0" class="value" text-anchor="middle">-48.1</text>
<rect x="692.0" y="340.0" width="70.0" height="28.0" rx="14.0" fill="#dc2626"/>
<text x="727.0" y="359.0" class="value" text-anchor="middle">-8.9</text>
<text x="926.0" y="352.0" class="value">current 1/1/47</text>
<text x="926.0" y="374.0" class="small">external / tie / GPT</text>
<circle cx="78.0" cy="510.0" r="7.0" fill="#94a3b8" stroke="#ffffff" stroke-width="2.0"/>
<text x="94.0" y="514.0" class="axis">previous instructions</text>
<circle cx="244.0" cy="510.0" r="7.0" fill="#2563eb" stroke="#ffffff" stroke-width="2.0"/>
<text x="260.0" y="514.0" class="axis">current instructions</text>
<text x="444.0" y="514.0" class="axis">Gap-change chip: positive means the external model moved closer to GPT.</text>
<line x1="32.0" y1="518.0" x2="1088.0" y2="518.0" stroke="#e5e7eb" stroke-width="1"/>
<text x="32.0" y="536.0" class="small">Scope: v4.13 OpenAI-judged GPT/GLM/DeepSeek saved outputs; Grok/reference/no-instruction charts use labeled v4.12 saved snapshots.</text>
<text x="32.0" y="548.0" class="small">Source: v4.13 GPT-vs-external saved-quality summaries judged by OpenAI/Codex</text>
<text x="1088.0" y="548.0" class="small" text-anchor="end">Generated by scripts/build_readme_infographics.py</text>
</svg>
