<svg xmlns="http://www.w3.org/2000/svg" width="1360" height="748" viewBox="0 0 1360 748" role="img" aria-labelledby="title desc">
<title id="title">Absolute response quality</title>
<desc id="desc">Hard-gate coverage and independent Sol medium scores for six blinded instructed model outputs.</desc>
<style>
text{font-family:-apple-system,BlinkMacSystemFont,'Segoe UI',sans-serif;letter-spacing:0}
.title{font-size:30px;font-weight:700;fill:#111827}
.subtitle{font-size:15px;fill:#64748b}
.label{font-size:14px;font-weight:700;fill:#111827}
.small{font-size:12px;fill:#64748b}
.value{font-size:13px;font-weight:700;fill:#111827}
.axis{font-size:11px;fill:#64748b}
.cell{font-size:11px;font-weight:700;fill:#111827}
</style>
<rect x="0" y="0" width="1360" height="748" fill="#f8fafc"/>
<text x="40.0" y="56.0" class="title">Absolute response quality</text>
<text x="40.0" y="84.0" class="subtitle">Hard gate and Sol absolute score; quality among hard-gate-passed responses only.</text>
<rect x="40.0" y="110.0" width="1280.0" height="458.0" rx="10.0" fill="#ffffff" stroke="#cbd5e1"/>
<text x="72.0" y="144.0" class="axis">Model / role</text>
<text x="430.0" y="144.0" class="axis">Hard gate (0-50)</text>
<text x="790.0" y="144.0" class="axis">Sol absolute quality (0-100)</text>
<rect x="64.0" y="164.0" width="1230.0" height="50.0" rx="0.0" fill="#f8fafc"/>
<text x="72.0" y="192.0" class="label">GPT-5.6 Sol medium</text>
<text x="72.0" y="210.0" class="small">primary</text>
<rect x="430.0" y="181.0" width="250.0" height="14.0" rx="7.0" fill="#f1f5f9"/>
<rect x="430.0" y="181.0" width="155.0" height="14.0" rx="7.0" fill="#2563eb"/>
<text x="692.0" y="192.0" class="value">31/50</text>
<rect x="790.0" y="181.0" width="430.0" height="14.0" rx="7.0" fill="#f1f5f9"/>
<rect x="790.0" y="181.0" width="420.8" height="14.0" rx="7.0" fill="#16a34a"/>
<text x="1232.0" y="192.0" class="value">97.87</text>
<text x="72.0" y="252.0" class="label">GPT-5.5</text>
<text x="72.0" y="270.0" class="small">historical</text>
<rect x="430.0" y="241.0" width="250.0" height="14.0" rx="7.0" fill="#f1f5f9"/>
<rect x="430.0" y="241.0" width="175.0" height="14.0" rx="7.0" fill="#2563eb"/>
<text x="692.0" y="252.0" class="value">35/50</text>
<rect x="790.0" y="241.0" width="430.0" height="14.0" rx="7.0" fill="#f1f5f9"/>
<rect x="790.0" y="241.0" width="420.3" height="14.0" rx="7.0" fill="#16a34a"/>
<text x="1232.0" y="252.0" class="value">97.74</text>
<rect x="64.0" y="284.0" width="1230.0" height="50.0" rx="0.0" fill="#f8fafc"/>
<text x="72.0" y="312.0" class="label">GLM-5.2</text>
<text x="72.0" y="330.0" class="small">external</text>
<rect x="430.0" y="301.0" width="250.0" height="14.0" rx="7.0" fill="#f1f5f9"/>
<rect x="430.0" y="301.0" width="145.0" height="14.0" rx="7.0" fill="#2563eb"/>
<text x="692.0" y="312.0" class="value">29/50</text>
<rect x="790.0" y="301.0" width="430.0" height="14.0" rx="7.0" fill="#f1f5f9"/>
<rect x="790.0" y="301.0" width="400.6" height="14.0" rx="7.0" fill="#16a34a"/>
<text x="1232.0" y="312.0" class="value">93.17</text>
<text x="72.0" y="372.0" class="label">Grok 4.3</text>
<text x="72.0" y="390.0" class="small">external</text>
<rect x="430.0" y="361.0" width="250.0" height="14.0" rx="7.0" fill="#f1f5f9"/>
<rect x="430.0" y="361.0" width="110.0" height="14.0" rx="7.0" fill="#2563eb"/>
<text x="692.0" y="372.0" class="value">22/50</text>
<rect x="790.0" y="361.0" width="430.0" height="14.0" rx="7.0" fill="#f1f5f9"/>
<rect x="790.0" y="361.0" width="382.3" height="14.0" rx="7.0" fill="#16a34a"/>
<text x="1232.0" y="372.0" class="value">88.91</text>
<rect x="64.0" y="404.0" width="1230.0" height="50.0" rx="0.0" fill="#f8fafc"/>
<text x="72.0" y="432.0" class="label">DeepSeek V4 Flash</text>
<text x="72.0" y="450.0" class="small">external</text>
<rect x="430.0" y="421.0" width="250.0" height="14.0" rx="7.0" fill="#f1f5f9"/>
<rect x="430.0" y="421.0" width="95.0" height="14.0" rx="7.0" fill="#2563eb"/>
<text x="692.0" y="432.0" class="value">19/50</text>
<rect x="790.0" y="421.0" width="430.0" height="14.0" rx="7.0" fill="#f1f5f9"/>
<rect x="790.0" y="421.0" width="354.0" height="14.0" rx="7.0" fill="#16a34a"/>
<text x="1232.0" y="432.0" class="value">82.32</text>
<text x="72.0" y="492.0" class="label">DeepSeek V4 Flash thinking</text>
<text x="72.0" y="510.0" class="small">external</text>
<rect x="430.0" y="481.0" width="250.0" height="14.0" rx="7.0" fill="#f1f5f9"/>
<rect x="430.0" y="481.0" width="105.0" height="14.0" rx="7.0" fill="#2563eb"/>
<text x="692.0" y="492.0" class="value">21/50</text>
<rect x="790.0" y="481.0" width="430.0" height="14.0" rx="7.0" fill="#f1f5f9"/>
<rect x="790.0" y="481.0" width="382.7" height="14.0" rx="7.0" fill="#16a34a"/>
<text x="1232.0" y="492.0" class="value">89.00</text>
<text x="72.0" y="610.0" class="label">Rows are ordered Primary, Historical, then External; this is not a global ranking.</text>
<text x="72.0" y="634.0" class="small">Different pass counts mean absolute row averages use different case subsets.</text>
<line x1="32.0" y1="698.0" x2="1328.0" y2="698.0" stroke="#e5e7eb" stroke-width="1"/>
<text x="32.0" y="716.0" class="small">Scope: blinded absolute quality, 157 hard-gate-passed responses across 6 models; single-response gpt-5.6-sol-medium judge; comparisons use common passed cases; no global ranking.</text>
<text x="32.0" y="728.0" class="small">Source: canonical sol-absolute.json; 157 independent single-response judgments.</text>
<text x="1328.0" y="728.0" class="small" text-anchor="end">Generated by scripts/build_readme_infographics.py</text>
</svg>
