<svg xmlns="http://www.w3.org/2000/svg" width="1120" height="620" viewBox="0 0 1120 620" role="img" aria-labelledby="title desc">
<title id="title">External model gap versus GPT on 50 cases</title>
<desc id="desc">OpenAI/Codex judge comparison of external saved current outputs against GPT current outputs.</desc>
<style>
text{font-family:-apple-system,BlinkMacSystemFont,'Segoe UI',sans-serif;letter-spacing:0}
.title{font-size:30px;font-weight:700;fill:#111827}
.subtitle{font-size:15px;fill:#64748b}
.label{font-size:14px;font-weight:700;fill:#111827}
.small{font-size:12px;fill:#64748b}
.value{font-size:13px;font-weight:700;fill:#111827}
.axis{font-size:11px;fill:#64748b}
.cell{font-size:11px;font-weight:700;fill:#111827}
</style>
<rect x="0" y="0" width="1120" height="620" fill="#f8fafc"/>
<text x="40.0" y="56.0" class="title">External model gap versus GPT</text>
<text x="40.0" y="84.0" class="subtitle">Delta is external-model score minus GPT score on current instructions; closer to zero is better.</text>
<rect x="40.0" y="112.0" width="1040.0" height="400.0" rx="10.0" fill="#ffffff" stroke="#cbd5e1"/>
<text x="72.0" y="148.0" class="axis">Model</text>
<text x="292.0" y="148.0" class="axis">Average quality delta versus GPT</text>
<text x="926.0" y="148.0" class="axis">Quality split</text>
<line x1="292.0" y1="176.0" x2="292.0" y2="444.0" stroke="#e5e7eb" stroke-width="1"/>
<text x="292.0" y="166.0" class="axis" text-anchor="middle">-50</text>
<line x1="416.0" y1="176.0" x2="416.0" y2="444.0" stroke="#e5e7eb" stroke-width="1"/>
<text x="416.0" y="166.0" class="axis" text-anchor="middle">-40</text>
<line x1="540.0" y1="176.0" x2="540.0" y2="444.0" stroke="#e5e7eb" stroke-width="1"/>
<text x="540.0" y="166.0" class="axis" text-anchor="middle">-30</text>
<line x1="664.0" y1="176.0" x2="664.0" y2="444.0" stroke="#e5e7eb" stroke-width="1"/>
<text x="664.0" y="166.0" class="axis" text-anchor="middle">-20</text>
<line x1="788.0" y1="176.0" x2="788.0" y2="444.0" stroke="#e5e7eb" stroke-width="1"/>
<text x="788.0" y="166.0" class="axis" text-anchor="middle">-10</text>
<line x1="912.0" y1="176.0" x2="912.0" y2="444.0" stroke="#e5e7eb" stroke-width="1"/>
<text x="912.0" y="166.0" class="axis" text-anchor="middle">0</text>
<line x1="912.0" y1="170.0" x2="912.0" y2="456.0" stroke="#94a3b8" stroke-width="1"/>
<rect x="64.0" y="184.0" width="990.0" height="50.0" rx="0.0" fill="#f8fafc"/>
<text x="72.0" y="211.0" class="label">GLM</text>
<text x="72.0" y="231.0" class="small">hard gates 46/50</text>
<rect x="292.0" y="200.0" width="620.0" height="10.0" rx="5.0" fill="#f1f5f9"/>
<rect x="809.1" y="194.0" width="102.9" height="22.0" rx="4.0" fill="#dbeafe"/>
<circle cx="809.1" cy="205.0" r="8.0" fill="#16a34a" stroke="#ffffff" stroke-width="2.0"/>
<text x="809.1" y="186.0" class="value" text-anchor="middle">-8.3</text>
<text x="926.0" y="207.0" class="value">22/7/21</text>
<text x="926.0" y="227.0" class="small">external / tie / GPT</text>
<text x="72.0" y="267.0" class="label">Grok 4.3</text>
<text x="72.0" y="287.0" class="small">hard gates 33/50</text>
<rect x="292.0" y="256.0" width="620.0" height="10.0" rx="5.0" fill="#f1f5f9"/>
<rect x="422.2" y="250.0" width="489.8" height="22.0" rx="4.0" fill="#dbeafe"/>
<circle cx="422.2" cy="261.0" r="8.0" fill="#ea580c" stroke="#ffffff" stroke-width="2.0"/>
<text x="422.2" y="242.0" class="value" text-anchor="middle">-39.5</text>
<text x="926.0" y="263.0" class="value">0/0/50</text>
<text x="926.0" y="283.0" class="small">external / tie / GPT</text>
<rect x="64.0" y="296.0" width="990.0" height="50.0" rx="0.0" fill="#f8fafc"/>
<text x="72.0" y="323.0" class="label">Grok Build</text>
<text x="72.0" y="343.0" class="small">hard gates 31/50</text>
<rect x="292.0" y="312.0" width="620.0" height="10.0" rx="5.0" fill="#f1f5f9"/>
<rect x="402.4" y="306.0" width="509.6" height="22.0" rx="4.0" fill="#dbeafe"/>
<circle cx="402.4" cy="317.0" r="8.0" fill="#7c3aed" stroke="#ffffff" stroke-width="2.0"/>
<text x="402.4" y="298.0" class="value" text-anchor="middle">-41.1</text>
<text x="926.0" y="319.0" class="value">2/5/43</text>
<text x="926.0" y="339.0" class="small">external / tie / GPT</text>
<text x="72.0" y="379.0" class="label">DeepSeek</text>
<text x="72.0" y="399.0" class="small">hard gates 31/50</text>
<rect x="292.0" y="368.0" width="620.0" height="10.0" rx="5.0" fill="#f1f5f9"/>
<rect x="370.1" y="362.0" width="541.9" height="22.0" rx="4.0" fill="#dbeafe"/>
<circle cx="370.1" cy="373.0" r="8.0" fill="#0891b2" stroke="#ffffff" stroke-width="2.0"/>
<text x="370.1" y="354.0" class="value" text-anchor="middle">-43.7</text>
<text x="926.0" y="375.0" class="value">0/0/50</text>
<text x="926.0" y="395.0" class="small">external / tie / GPT</text>
<rect x="64.0" y="408.0" width="990.0" height="50.0" rx="0.0" fill="#f8fafc"/>
<text x="72.0" y="435.0" class="label">DS thinking</text>
<text x="72.0" y="455.0" class="small">hard gates 34/50</text>
<rect x="292.0" y="424.0" width="620.0" height="10.0" rx="5.0" fill="#f1f5f9"/>
<rect x="433.4" y="418.0" width="478.6" height="22.0" rx="4.0" fill="#dbeafe"/>
<circle cx="433.4" cy="429.0" r="8.0" fill="#0f766e" stroke="#ffffff" stroke-width="2.0"/>
<text x="433.4" y="410.0" class="value" text-anchor="middle">-38.6</text>
<text x="926.0" y="431.0" class="value">0/1/49</text>
<text x="926.0" y="451.0" class="small">external / tie / GPT</text>
<circle cx="78.0" cy="550.0" r="7.0" fill="#2563eb" stroke="#ffffff" stroke-width="2.0"/>
<text x="94.0" y="554.0" class="axis">external model</text>
<text x="244.0" y="554.0" class="axis">Zero is parity with GPT; all current external rows remain below GPT on average.</text>
<line x1="32.0" y1="568.0" x2="1088.0" y2="568.0" stroke="#e5e7eb" stroke-width="1"/>
<text x="32.0" y="586.0" class="small">Scope: 50-case saved hard-gate and quality snapshot; all-model reference rows included.</text>
<text x="32.0" y="598.0" class="small">Source: gpt-vs-external-current saved quality summary.</text>
<text x="1088.0" y="598.0" class="small" text-anchor="end">Generated by scripts/build_readme_infographics.py</text>
</svg>
