<svg xmlns="http://www.w3.org/2000/svg" width="1360" height="790" viewBox="0 0 1360 790" role="img" aria-labelledby="title desc">
<title id="title">Quality-only comparisons after hard gates pass</title>
<desc id="desc">Only cases where both sides passed deterministic hard gates are included.</desc>
<style>
text{font-family:-apple-system,BlinkMacSystemFont,'Segoe UI',sans-serif;letter-spacing:0}
.title{font-size:30px;font-weight:700;fill:#111827}
.subtitle{font-size:15px;fill:#64748b}
.label{font-size:14px;font-weight:700;fill:#111827}
.small{font-size:12px;fill:#64748b}
.value{font-size:13px;font-weight:700;fill:#111827}
.axis{font-size:11px;fill:#64748b}
.cell{font-size:11px;font-weight:700;fill:#111827}
</style>
<rect x="0" y="0" width="1360" height="790" fill="#f8fafc"/>
<text x="40.0" y="56.0" class="title">Quality-only small multiples</text>
<text x="40.0" y="84.0" class="subtitle">Hard failures are excluded. Triplets are left wins / ties / right wins, with n=pass/pass overlap.</text>
<rect x="40.0" y="116.0" width="390.0" height="540.0" rx="10.0" fill="#ffffff" stroke="#cbd5e1"/>
<text x="72.0" y="152.0" class="label">v4.13 current vs previous</text>
<text x="72.0" y="202.0" class="label">GPT</text>
<rect x="178.0" y="188.0" width="91.8" height="18.0" rx="4.0" fill="#16a34a"/>
<rect x="269.8" y="188.0" width="39.8" height="18.0" rx="4.0" fill="#f59e0b"/>
<rect x="309.6" y="188.0" width="18.4" height="18.0" rx="4.0" fill="#be123c"/>
<rect x="178.0" y="188.0" width="150.0" height="18.0" rx="4.0" fill="none" stroke="#e5e7eb"/>
<text x="344.0" y="202.0" class="value">30/13/6</text>
<text x="190.0" y="228.0" class="small">n=49, avg delta +1.5</text>
<text x="72.0" y="264.0" class="label">GLM</text>
<rect x="178.0" y="250.0" width="88.6" height="18.0" rx="4.0" fill="#16a34a"/>
<rect x="266.6" y="250.0" width="17.0" height="18.0" rx="4.0" fill="#f59e0b"/>
<rect x="283.7" y="250.0" width="44.3" height="18.0" rx="4.0" fill="#be123c"/>
<rect x="178.0" y="250.0" width="150.0" height="18.0" rx="4.0" fill="none" stroke="#e5e7eb"/>
<text x="344.0" y="264.0" class="value">26/5/13</text>
<text x="190.0" y="290.0" class="small">n=44, avg delta +0.7</text>
<text x="72.0" y="326.0" class="label">DeepSeek</text>
<rect x="178.0" y="312.0" width="47.7" height="18.0" rx="4.0" fill="#16a34a"/>
<rect x="225.7" y="312.0" width="27.3" height="18.0" rx="4.0" fill="#f59e0b"/>
<rect x="253.0" y="312.0" width="75.0" height="18.0" rx="4.0" fill="#be123c"/>
<rect x="178.0" y="312.0" width="150.0" height="18.0" rx="4.0" fill="none" stroke="#e5e7eb"/>
<text x="344.0" y="326.0" class="value">7/4/11</text>
<text x="190.0" y="352.0" class="small">n=22, avg delta -0.7</text>
<text x="72.0" y="388.0" class="label">DS thinking</text>
<rect x="178.0" y="374.0" width="62.5" height="18.0" rx="4.0" fill="#16a34a"/>
<rect x="240.5" y="374.0" width="31.2" height="18.0" rx="4.0" fill="#f59e0b"/>
<rect x="271.8" y="374.0" width="56.2" height="18.0" rx="4.0" fill="#be123c"/>
<rect x="178.0" y="374.0" width="150.0" height="18.0" rx="4.0" fill="none" stroke="#e5e7eb"/>
<text x="344.0" y="388.0" class="value">10/5/9</text>
<text x="190.0" y="414.0" class="small">n=24, avg delta -0.1</text>
<rect x="460.0" y="116.0" width="390.0" height="540.0" rx="10.0" fill="#ffffff" stroke="#cbd5e1"/>
<text x="492.0" y="152.0" class="label">External model vs GPT</text>
<text x="492.0" y="198.0" class="label">GLM cur</text>
<rect x="614.0" y="184.0" width="60.3" height="18.0" rx="4.0" fill="#2563eb"/>
<rect x="674.3" y="184.0" width="14.3" height="18.0" rx="4.0" fill="#f59e0b"/>
<rect x="688.6" y="184.0" width="57.4" height="18.0" rx="4.0" fill="#be123c"/>
<rect x="614.0" y="184.0" width="132.0" height="18.0" rx="4.0" fill="none" stroke="#e5e7eb"/>
<text x="762.0" y="198.0" class="value">21/5/20</text>
<text x="614.0" y="224.0" class="small">n=46, avg delta -1.0</text>
<text x="492.0" y="260.0" class="label">GLM prev</text>
<rect x="614.0" y="246.0" width="48.8" height="18.0" rx="4.0" fill="#2563eb"/>
<rect x="662.8" y="246.0" width="28.7" height="18.0" rx="4.0" fill="#f59e0b"/>
<rect x="691.5" y="246.0" width="54.5" height="18.0" rx="4.0" fill="#be123c"/>
<rect x="614.0" y="246.0" width="132.0" height="18.0" rx="4.0" fill="none" stroke="#e5e7eb"/>
<text x="762.0" y="260.0" class="value">17/10/19</text>
<text x="614.0" y="286.0" class="small">n=46, avg delta -0.8</text>
<text x="492.0" y="322.0" class="label">DeepSeek cur</text>
<rect x="614.0" y="308.0" width="3.8" height="18.0" rx="4.0" fill="#2563eb"/>
<rect x="617.8" y="308.0" width="7.5" height="18.0" rx="4.0" fill="#f59e0b"/>
<rect x="625.3" y="308.0" width="120.7" height="18.0" rx="4.0" fill="#be123c"/>
<rect x="614.0" y="308.0" width="132.0" height="18.0" rx="4.0" fill="none" stroke="#e5e7eb"/>
<text x="762.0" y="322.0" class="value">1/2/32</text>
<text x="614.0" y="348.0" class="small">n=35, avg delta -9.4</text>
<text x="492.0" y="384.0" class="label">DeepSeek prev</text>
<rect x="614.0" y="370.0" width="132.0" height="18.0" rx="4.0" fill="#be123c"/>
<rect x="614.0" y="370.0" width="132.0" height="18.0" rx="4.0" fill="none" stroke="#e5e7eb"/>
<text x="762.0" y="384.0" class="value">0/0/25</text>
<text x="614.0" y="410.0" class="small">n=25, avg delta -9.2</text>
<text x="492.0" y="446.0" class="label">DS thinking cur</text>
<rect x="614.0" y="432.0" width="4.7" height="18.0" rx="4.0" fill="#2563eb"/>
<rect x="618.7" y="432.0" width="4.7" height="18.0" rx="4.0" fill="#f59e0b"/>
<rect x="623.4" y="432.0" width="122.6" height="18.0" rx="4.0" fill="#be123c"/>
<rect x="614.0" y="432.0" width="132.0" height="18.0" rx="4.0" fill="none" stroke="#e5e7eb"/>
<text x="762.0" y="446.0" class="value">1/1/26</text>
<text x="614.0" y="472.0" class="small">n=28, avg delta -9.2</text>
<text x="492.0" y="508.0" class="label">DS thinking prev</text>
<rect x="614.0" y="494.0" width="132.0" height="18.0" rx="4.0" fill="#be123c"/>
<rect x="614.0" y="494.0" width="132.0" height="18.0" rx="4.0" fill="none" stroke="#e5e7eb"/>
<text x="762.0" y="508.0" class="value">0/0/33</text>
<text x="614.0" y="534.0" class="small">n=33, avg delta -9.7</text>
<rect x="880.0" y="116.0" width="440.0" height="540.0" rx="10.0" fill="#ffffff" stroke="#cbd5e1"/>
<text x="912.0" y="152.0" class="label">Current vs references (v4.12 saved)</text>
<text x="912.0" y="198.0" class="label">GPT/OH</text>
<rect x="1048.0" y="184.0" width="116.2" height="18.0" rx="4.0" fill="#2563eb"/>
<rect x="1164.2" y="184.0" width="15.0" height="18.0" rx="4.0" fill="#f59e0b"/>
<rect x="1179.2" y="184.0" width="18.8" height="18.0" rx="4.0" fill="#be123c"/>
<rect x="1048.0" y="184.0" width="150.0" height="18.0" rx="4.0" fill="none" stroke="#e5e7eb"/>
<text x="1214.0" y="198.0" class="value">31/4/5</text>
<text x="1270.0" y="198.0" class="small">n=40</text>
<text x="912.0" y="236.0" class="label">GPT/F</text>
<rect x="1048.0" y="222.0" width="104.2" height="18.0" rx="4.0" fill="#2563eb"/>
<rect x="1152.2" y="222.0" width="33.3" height="18.0" rx="4.0" fill="#f59e0b"/>
<rect x="1185.5" y="222.0" width="12.5" height="18.0" rx="4.0" fill="#be123c"/>
<rect x="1048.0" y="222.0" width="150.0" height="18.0" rx="4.0" fill="none" stroke="#e5e7eb"/>
<text x="1214.0" y="236.0" class="value">25/8/3</text>
<text x="1270.0" y="236.0" class="small">n=36</text>
<text x="912.0" y="274.0" class="label">GLM/OH</text>
<rect x="1048.0" y="260.0" width="120.0" height="18.0" rx="4.0" fill="#2563eb"/>
<rect x="1168.0" y="260.0" width="10.0" height="18.0" rx="4.0" fill="#f59e0b"/>
<rect x="1178.0" y="260.0" width="20.0" height="18.0" rx="4.0" fill="#be123c"/>
<rect x="1048.0" y="260.0" width="150.0" height="18.0" rx="4.0" fill="none" stroke="#e5e7eb"/>
<text x="1214.0" y="274.0" class="value">12/1/2</text>
<text x="1270.0" y="274.0" class="small">n=15</text>
<text x="912.0" y="312.0" class="label">GLM/F</text>
<rect x="1048.0" y="298.0" width="105.9" height="18.0" rx="4.0" fill="#2563eb"/>
<rect x="1153.9" y="298.0" width="26.5" height="18.0" rx="4.0" fill="#f59e0b"/>
<rect x="1180.4" y="298.0" width="17.6" height="18.0" rx="4.0" fill="#be123c"/>
<rect x="1048.0" y="298.0" width="150.0" height="18.0" rx="4.0" fill="none" stroke="#e5e7eb"/>
<text x="1214.0" y="312.0" class="value">12/3/2</text>
<text x="1270.0" y="312.0" class="small">n=17</text>
<text x="912.0" y="350.0" class="label">Grok Build/OH</text>
<rect x="1048.0" y="336.0" width="139.3" height="18.0" rx="4.0" fill="#2563eb"/>
<rect x="1187.3" y="336.0" width="10.7" height="18.0" rx="4.0" fill="#be123c"/>
<rect x="1048.0" y="336.0" width="150.0" height="18.0" rx="4.0" fill="none" stroke="#e5e7eb"/>
<text x="1214.0" y="350.0" class="value">13/0/1</text>
<text x="1270.0" y="350.0" class="small">n=14</text>
<text x="912.0" y="388.0" class="label">Grok Build/F</text>
<rect x="1048.0" y="374.0" width="109.1" height="18.0" rx="4.0" fill="#2563eb"/>
<rect x="1157.1" y="374.0" width="13.6" height="18.0" rx="4.0" fill="#f59e0b"/>
<rect x="1170.7" y="374.0" width="27.3" height="18.0" rx="4.0" fill="#be123c"/>
<rect x="1048.0" y="374.0" width="150.0" height="18.0" rx="4.0" fill="none" stroke="#e5e7eb"/>
<text x="1214.0" y="388.0" class="value">8/1/2</text>
<text x="1270.0" y="388.0" class="small">n=11</text>
<text x="912.0" y="426.0" class="label">Grok 4.3/OH</text>
<rect x="1048.0" y="412.0" width="125.0" height="18.0" rx="4.0" fill="#2563eb"/>
<rect x="1173.0" y="412.0" width="25.0" height="18.0" rx="4.0" fill="#f59e0b"/>
<rect x="1048.0" y="412.0" width="150.0" height="18.0" rx="4.0" fill="none" stroke="#e5e7eb"/>
<text x="1214.0" y="426.0" class="value">5/1/0</text>
<text x="1270.0" y="426.0" class="small">n=6</text>
<text x="912.0" y="464.0" class="label">Grok 4.3/F</text>
<rect x="1048.0" y="450.0" width="105.0" height="18.0" rx="4.0" fill="#2563eb"/>
<rect x="1153.0" y="450.0" width="45.0" height="18.0" rx="4.0" fill="#be123c"/>
<rect x="1048.0" y="450.0" width="150.0" height="18.0" rx="4.0" fill="none" stroke="#e5e7eb"/>
<text x="1214.0" y="464.0" class="value">7/0/3</text>
<text x="1270.0" y="464.0" class="small">n=10</text>
<text x="912.0" y="502.0" class="label">DeepSeek/OH</text>
<rect x="1048.0" y="488.0" width="109.1" height="18.0" rx="4.0" fill="#2563eb"/>
<rect x="1157.1" y="488.0" width="40.9" height="18.0" rx="4.0" fill="#be123c"/>
<rect x="1048.0" y="488.0" width="150.0" height="18.0" rx="4.0" fill="none" stroke="#e5e7eb"/>
<text x="1214.0" y="502.0" class="value">8/0/3</text>
<text x="1270.0" y="502.0" class="small">n=11</text>
<text x="912.0" y="540.0" class="label">DeepSeek/F</text>
<rect x="1048.0" y="526.0" width="116.7" height="18.0" rx="4.0" fill="#2563eb"/>
<rect x="1164.7" y="526.0" width="16.7" height="18.0" rx="4.0" fill="#f59e0b"/>
<rect x="1181.3" y="526.0" width="16.7" height="18.0" rx="4.0" fill="#be123c"/>
<rect x="1048.0" y="526.0" width="150.0" height="18.0" rx="4.0" fill="none" stroke="#e5e7eb"/>
<text x="1214.0" y="540.0" class="value">7/1/1</text>
<text x="1270.0" y="540.0" class="small">n=9</text>
<text x="912.0" y="578.0" class="label">DS thinking/OH</text>
<rect x="1048.0" y="564.0" width="120.0" height="18.0" rx="4.0" fill="#2563eb"/>
<rect x="1168.0" y="564.0" width="30.0" height="18.0" rx="4.0" fill="#f59e0b"/>
<rect x="1048.0" y="564.0" width="150.0" height="18.0" rx="4.0" fill="none" stroke="#e5e7eb"/>
<text x="1214.0" y="578.0" class="value">4/1/0</text>
<text x="1270.0" y="578.0" class="small">n=5</text>
<text x="912.0" y="616.0" class="label">DS thinking/F</text>
<rect x="1048.0" y="602.0" width="128.6" height="18.0" rx="4.0" fill="#2563eb"/>
<rect x="1176.6" y="602.0" width="21.4" height="18.0" rx="4.0" fill="#be123c"/>
<rect x="1048.0" y="602.0" width="150.0" height="18.0" rx="4.0" fill="none" stroke="#e5e7eb"/>
<text x="1214.0" y="616.0" class="value">6/0/1</text>
<text x="1270.0" y="616.0" class="small">n=7</text>
<text x="72.0" y="692.0" class="label">Triplet meaning changes by panel: current/previous, external/GPT, and current/reference. Use the title before comparing colors.</text>
<line x1="32.0" y1="728.0" x2="1328.0" y2="728.0" stroke="#e5e7eb" stroke-width="1"/>
<text x="32.0" y="746.0" class="small">Scope: v4.13 OpenAI-judged GPT/GLM/DeepSeek saved outputs; Grok/reference/no-instruction charts use labeled v4.12 saved snapshots.</text>
<text x="32.0" y="758.0" class="small">Source: OpenAI/Codex saved-quality reports filtered to both sides passed; references are saved v4.12 context</text>
<text x="1328.0" y="758.0" class="small" text-anchor="end">Generated by scripts/build_readme_infographics.py</text>
</svg>
