<svg xmlns="http://www.w3.org/2000/svg" width="1120" height="760" viewBox="0 0 1120 760" role="img" aria-labelledby="title desc">
<title id="title">Quality-only comparisons after hard gates pass</title>
<desc id="desc">Only cases where both sides passed deterministic hard gates are included.</desc>
<style>
text{font-family:-apple-system,BlinkMacSystemFont,'Segoe UI',sans-serif;letter-spacing:0}
.title{font-size:30px;font-weight:700;fill:#111827}
.subtitle{font-size:15px;fill:#64748b}
.label{font-size:14px;font-weight:700;fill:#111827}
.small{font-size:12px;fill:#64748b}
.value{font-size:13px;font-weight:700;fill:#111827}
.axis{font-size:11px;fill:#64748b}
.cell{font-size:11px;font-weight:700;fill:#111827}
</style>
<rect x="0" y="0" width="1120" height="760" fill="#f8fafc"/>
<text x="40.0" y="56.0" class="title">Quality-only small multiples</text>
<text x="40.0" y="84.0" class="subtitle">Hard failures are excluded. Triplets are left wins / ties / right wins, with n=pass/pass overlap.</text>
<rect x="40.0" y="116.0" width="500.0" height="540.0" rx="10.0" fill="#ffffff" stroke="#cbd5e1"/>
<text x="72.0" y="152.0" class="label">New current vs previous current</text>
<text x="72.0" y="202.0" class="label">GPT</text>
<rect x="190.0" y="188.0" width="85.7" height="18.0" rx="4.0" fill="#16a34a"/>
<rect x="275.7" y="188.0" width="75.0" height="18.0" rx="4.0" fill="#f59e0b"/>
<rect x="350.7" y="188.0" width="64.3" height="18.0" rx="4.0" fill="#be123c"/>
<rect x="190.0" y="188.0" width="225.0" height="18.0" rx="4.0" fill="none" stroke="#e5e7eb"/>
<text x="430.0" y="202.0" class="value">16/14/12</text>
<text x="190.0" y="228.0" class="small">n=42, avg delta +0.1</text>
<text x="72.0" y="264.0" class="label">GLM</text>
<rect x="190.0" y="250.0" width="34.6" height="18.0" rx="4.0" fill="#16a34a"/>
<rect x="224.6" y="250.0" width="57.7" height="18.0" rx="4.0" fill="#f59e0b"/>
<rect x="282.3" y="250.0" width="132.7" height="18.0" rx="4.0" fill="#be123c"/>
<rect x="190.0" y="250.0" width="225.0" height="18.0" rx="4.0" fill="none" stroke="#e5e7eb"/>
<text x="430.0" y="264.0" class="value">6/10/23</text>
<text x="190.0" y="290.0" class="small">n=39, avg delta -2.8</text>
<text x="72.0" y="326.0" class="label">Grok Build</text>
<rect x="190.0" y="312.0" width="61.4" height="18.0" rx="4.0" fill="#16a34a"/>
<rect x="251.4" y="312.0" width="34.1" height="18.0" rx="4.0" fill="#f59e0b"/>
<rect x="285.5" y="312.0" width="129.5" height="18.0" rx="4.0" fill="#be123c"/>
<rect x="190.0" y="312.0" width="225.0" height="18.0" rx="4.0" fill="none" stroke="#e5e7eb"/>
<text x="430.0" y="326.0" class="value">9/5/19</text>
<text x="190.0" y="352.0" class="small">n=33, avg delta -2.2</text>
<text x="72.0" y="388.0" class="label">Grok 4.3</text>
<rect x="190.0" y="374.0" width="88.4" height="18.0" rx="4.0" fill="#16a34a"/>
<rect x="278.4" y="374.0" width="64.3" height="18.0" rx="4.0" fill="#f59e0b"/>
<rect x="342.7" y="374.0" width="72.3" height="18.0" rx="4.0" fill="#be123c"/>
<rect x="190.0" y="374.0" width="225.0" height="18.0" rx="4.0" fill="none" stroke="#e5e7eb"/>
<text x="430.0" y="388.0" class="value">11/8/9</text>
<text x="190.0" y="414.0" class="small">n=28, avg delta -1.5</text>
<text x="72.0" y="450.0" class="label">DeepSeek</text>
<rect x="190.0" y="436.0" width="108.0" height="18.0" rx="4.0" fill="#16a34a"/>
<rect x="298.0" y="436.0" width="45.0" height="18.0" rx="4.0" fill="#f59e0b"/>
<rect x="343.0" y="436.0" width="72.0" height="18.0" rx="4.0" fill="#be123c"/>
<rect x="190.0" y="436.0" width="225.0" height="18.0" rx="4.0" fill="none" stroke="#e5e7eb"/>
<text x="430.0" y="450.0" class="value">12/5/8</text>
<text x="190.0" y="476.0" class="small">n=25, avg delta -0.2</text>
<text x="72.0" y="512.0" class="label">DS thinking</text>
<rect x="190.0" y="498.0" width="67.5" height="18.0" rx="4.0" fill="#16a34a"/>
<rect x="257.5" y="498.0" width="22.5" height="18.0" rx="4.0" fill="#f59e0b"/>
<rect x="280.0" y="498.0" width="135.0" height="18.0" rx="4.0" fill="#be123c"/>
<rect x="190.0" y="498.0" width="225.0" height="18.0" rx="4.0" fill="none" stroke="#e5e7eb"/>
<text x="430.0" y="512.0" class="value">6/2/12</text>
<text x="190.0" y="538.0" class="small">n=20, avg delta -3.2</text>
<rect x="580.0" y="116.0" width="500.0" height="540.0" rx="10.0" fill="#ffffff" stroke="#cbd5e1"/>
<text x="612.0" y="152.0" class="label">Current vs references</text>
<text x="612.0" y="198.0" class="label">GPT/OH</text>
<rect x="748.0" y="184.0" width="147.2" height="18.0" rx="4.0" fill="#2563eb"/>
<rect x="895.2" y="184.0" width="19.0" height="18.0" rx="4.0" fill="#f59e0b"/>
<rect x="914.2" y="184.0" width="23.8" height="18.0" rx="4.0" fill="#be123c"/>
<rect x="748.0" y="184.0" width="190.0" height="18.0" rx="4.0" fill="none" stroke="#e5e7eb"/>
<text x="954.0" y="198.0" class="value">31/4/5</text>
<text x="1010.0" y="198.0" class="small">n=40</text>
<text x="612.0" y="236.0" class="label">GPT/F</text>
<rect x="748.0" y="222.0" width="131.9" height="18.0" rx="4.0" fill="#2563eb"/>
<rect x="879.9" y="222.0" width="42.2" height="18.0" rx="4.0" fill="#f59e0b"/>
<rect x="922.2" y="222.0" width="15.8" height="18.0" rx="4.0" fill="#be123c"/>
<rect x="748.0" y="222.0" width="190.0" height="18.0" rx="4.0" fill="none" stroke="#e5e7eb"/>
<text x="954.0" y="236.0" class="value">25/8/3</text>
<text x="1010.0" y="236.0" class="small">n=36</text>
<text x="612.0" y="274.0" class="label">GLM/OH</text>
<rect x="748.0" y="260.0" width="152.0" height="18.0" rx="4.0" fill="#2563eb"/>
<rect x="900.0" y="260.0" width="12.7" height="18.0" rx="4.0" fill="#f59e0b"/>
<rect x="912.7" y="260.0" width="25.3" height="18.0" rx="4.0" fill="#be123c"/>
<rect x="748.0" y="260.0" width="190.0" height="18.0" rx="4.0" fill="none" stroke="#e5e7eb"/>
<text x="954.0" y="274.0" class="value">12/1/2</text>
<text x="1010.0" y="274.0" class="small">n=15</text>
<text x="612.0" y="312.0" class="label">GLM/F</text>
<rect x="748.0" y="298.0" width="134.1" height="18.0" rx="4.0" fill="#2563eb"/>
<rect x="882.1" y="298.0" width="33.5" height="18.0" rx="4.0" fill="#f59e0b"/>
<rect x="915.6" y="298.0" width="22.4" height="18.0" rx="4.0" fill="#be123c"/>
<rect x="748.0" y="298.0" width="190.0" height="18.0" rx="4.0" fill="none" stroke="#e5e7eb"/>
<text x="954.0" y="312.0" class="value">12/3/2</text>
<text x="1010.0" y="312.0" class="small">n=17</text>
<text x="612.0" y="350.0" class="label">Grok Build/OH</text>
<rect x="748.0" y="336.0" width="176.4" height="18.0" rx="4.0" fill="#2563eb"/>
<rect x="924.4" y="336.0" width="13.6" height="18.0" rx="4.0" fill="#be123c"/>
<rect x="748.0" y="336.0" width="190.0" height="18.0" rx="4.0" fill="none" stroke="#e5e7eb"/>
<text x="954.0" y="350.0" class="value">13/0/1</text>
<text x="1010.0" y="350.0" class="small">n=14</text>
<text x="612.0" y="388.0" class="label">Grok Build/F</text>
<rect x="748.0" y="374.0" width="138.2" height="18.0" rx="4.0" fill="#2563eb"/>
<rect x="886.2" y="374.0" width="17.3" height="18.0" rx="4.0" fill="#f59e0b"/>
<rect x="903.5" y="374.0" width="34.5" height="18.0" rx="4.0" fill="#be123c"/>
<rect x="748.0" y="374.0" width="190.0" height="18.0" rx="4.0" fill="none" stroke="#e5e7eb"/>
<text x="954.0" y="388.0" class="value">8/1/2</text>
<text x="1010.0" y="388.0" class="small">n=11</text>
<text x="612.0" y="426.0" class="label">Grok 4.3/OH</text>
<rect x="748.0" y="412.0" width="158.3" height="18.0" rx="4.0" fill="#2563eb"/>
<rect x="906.3" y="412.0" width="31.7" height="18.0" rx="4.0" fill="#f59e0b"/>
<rect x="748.0" y="412.0" width="190.0" height="18.0" rx="4.0" fill="none" stroke="#e5e7eb"/>
<text x="954.0" y="426.0" class="value">5/1/0</text>
<text x="1010.0" y="426.0" class="small">n=6</text>
<text x="612.0" y="464.0" class="label">Grok 4.3/F</text>
<rect x="748.0" y="450.0" width="133.0" height="18.0" rx="4.0" fill="#2563eb"/>
<rect x="881.0" y="450.0" width="57.0" height="18.0" rx="4.0" fill="#be123c"/>
<rect x="748.0" y="450.0" width="190.0" height="18.0" rx="4.0" fill="none" stroke="#e5e7eb"/>
<text x="954.0" y="464.0" class="value">7/0/3</text>
<text x="1010.0" y="464.0" class="small">n=10</text>
<text x="612.0" y="502.0" class="label">DeepSeek/OH</text>
<rect x="748.0" y="488.0" width="138.2" height="18.0" rx="4.0" fill="#2563eb"/>
<rect x="886.2" y="488.0" width="51.8" height="18.0" rx="4.0" fill="#be123c"/>
<rect x="748.0" y="488.0" width="190.0" height="18.0" rx="4.0" fill="none" stroke="#e5e7eb"/>
<text x="954.0" y="502.0" class="value">8/0/3</text>
<text x="1010.0" y="502.0" class="small">n=11</text>
<text x="612.0" y="540.0" class="label">DeepSeek/F</text>
<rect x="748.0" y="526.0" width="147.8" height="18.0" rx="4.0" fill="#2563eb"/>
<rect x="895.8" y="526.0" width="21.1" height="18.0" rx="4.0" fill="#f59e0b"/>
<rect x="916.9" y="526.0" width="21.1" height="18.0" rx="4.0" fill="#be123c"/>
<rect x="748.0" y="526.0" width="190.0" height="18.0" rx="4.0" fill="none" stroke="#e5e7eb"/>
<text x="954.0" y="540.0" class="value">7/1/1</text>
<text x="1010.0" y="540.0" class="small">n=9</text>
<text x="612.0" y="578.0" class="label">DS thinking/OH</text>
<rect x="748.0" y="564.0" width="152.0" height="18.0" rx="4.0" fill="#2563eb"/>
<rect x="900.0" y="564.0" width="38.0" height="18.0" rx="4.0" fill="#f59e0b"/>
<rect x="748.0" y="564.0" width="190.0" height="18.0" rx="4.0" fill="none" stroke="#e5e7eb"/>
<text x="954.0" y="578.0" class="value">4/1/0</text>
<text x="1010.0" y="578.0" class="small">n=5</text>
<text x="612.0" y="616.0" class="label">DS thinking/F</text>
<rect x="748.0" y="602.0" width="162.9" height="18.0" rx="4.0" fill="#2563eb"/>
<rect x="910.9" y="602.0" width="27.1" height="18.0" rx="4.0" fill="#be123c"/>
<rect x="748.0" y="602.0" width="190.0" height="18.0" rx="4.0" fill="none" stroke="#e5e7eb"/>
<text x="954.0" y="616.0" class="value">6/0/1</text>
<text x="1010.0" y="616.0" class="small">n=7</text>
<text x="72.0" y="692.0" class="label">Empty quality is intentionally not mixed here: the v4.12 empty quality matrix is incomplete, so empty is shown only in the hard-gate dot plot.</text>
<line x1="32.0" y1="700.0" x2="1088.0" y2="700.0" stroke="#e5e7eb" stroke-width="1"/>
<text x="32.0" y="718.0" class="small">Scope: v4.12 all-model snapshot. v4.13 is GPT/Codex-only until external providers rerun.</text>
<text x="32.0" y="730.0" class="small">Source: saved quality pair reports filtered to both sides passed</text>
<text x="1088.0" y="730.0" class="small" text-anchor="end">Generated by scripts/build_readme_infographics.py</text>
</svg>
