<svg xmlns="http://www.w3.org/2000/svg" width="1360" height="744" viewBox="0 0 1360 744" role="img" aria-labelledby="title desc">
<title id="title">Dual-order quality scores: With instructions v4.13 vs Empty instructions</title>
<desc id="desc">Paired all-case quality scores balanced across both presentation orders for six blinded model rows.</desc>
<style>
text{font-family:-apple-system,BlinkMacSystemFont,'Segoe UI',sans-serif;letter-spacing:0}
.title{font-size:30px;font-weight:700;fill:#111827}
.subtitle{font-size:15px;fill:#64748b}
.label{font-size:14px;font-weight:700;fill:#111827}
.small{font-size:12px;fill:#64748b}
.value{font-size:13px;font-weight:700;fill:#111827}
.axis{font-size:11px;fill:#64748b}
.cell{font-size:11px;font-weight:700;fill:#111827}
</style>
<rect x="0" y="0" width="1360" height="744" fill="#f8fafc"/>
<text x="40.0" y="56.0" class="title">Dual-order quality scores: With instructions v4.13 vs Empty instructions</text>
<text x="40.0" y="84.0" class="subtitle">All 50 cases, balanced across both presentation orders. Compare v4.13 vs Empty within each row only.</text>
<rect x="40.0" y="110.0" width="1280.0" height="456.0" rx="10.0" fill="#ffffff" stroke="#cbd5e1"/>
<text x="72.0" y="144.0" class="axis">Model / runner</text>
<text x="390.0" y="144.0" class="axis">Balanced all-case quality score (0-100)</text>
<text x="1040.0" y="144.0" class="axis">Empty -&gt; v4.13 (delta)</text>
<line x1="390.0" y1="166.0" x2="390.0" y2="532.0" stroke="#e5e7eb" stroke-width="1"/>
<text x="390.0" y="166.0" class="axis" text-anchor="middle">0</text>
<line x1="514.0" y1="166.0" x2="514.0" y2="532.0" stroke="#e5e7eb" stroke-width="1"/>
<text x="514.0" y="166.0" class="axis" text-anchor="middle">20</text>
<line x1="638.0" y1="166.0" x2="638.0" y2="532.0" stroke="#e5e7eb" stroke-width="1"/>
<text x="638.0" y="166.0" class="axis" text-anchor="middle">40</text>
<line x1="762.0" y1="166.0" x2="762.0" y2="532.0" stroke="#e5e7eb" stroke-width="1"/>
<text x="762.0" y="166.0" class="axis" text-anchor="middle">60</text>
<line x1="886.0" y1="166.0" x2="886.0" y2="532.0" stroke="#e5e7eb" stroke-width="1"/>
<text x="886.0" y="166.0" class="axis" text-anchor="middle">80</text>
<line x1="1010.0" y1="166.0" x2="1010.0" y2="532.0" stroke="#e5e7eb" stroke-width="1"/>
<text x="1010.0" y="166.0" class="axis" text-anchor="middle">100</text>
<rect x="64.0" y="166.0" width="1230.0" height="46.0" rx="0.0" fill="#f8fafc"/>
<text x="72.0" y="198.0" class="label">GPT-5.6 Sol medium</text>
<rect x="390.0" y="180.0" width="620.0" height="11.0" rx="6.0" fill="#f1f5f9"/>
<rect x="390.0" y="180.0" width="245.5" height="11.0" rx="6.0" fill="#be123c"/>
<rect x="390.0" y="198.0" width="620.0" height="13.0" rx="7.0" fill="#f1f5f9"/>
<rect x="390.0" y="198.0" width="374.5" height="13.0" rx="7.0" fill="#2563eb"/>
<text x="1040.0" y="197.0" class="value">39.59 -&gt; 60.40 (+20.81)</text>
<text x="72.0" y="250.0" class="label">GPT-5.5</text>
<rect x="390.0" y="232.0" width="620.0" height="11.0" rx="6.0" fill="#f1f5f9"/>
<rect x="390.0" y="232.0" width="291.7" height="11.0" rx="6.0" fill="#be123c"/>
<rect x="390.0" y="250.0" width="620.0" height="13.0" rx="7.0" fill="#f1f5f9"/>
<rect x="390.0" y="250.0" width="421.7" height="13.0" rx="7.0" fill="#2563eb"/>
<text x="1040.0" y="249.0" class="value">47.05 -&gt; 68.02 (+20.97)</text>
<rect x="64.0" y="270.0" width="1230.0" height="46.0" rx="0.0" fill="#f8fafc"/>
<text x="72.0" y="302.0" class="label">GLM-5.2</text>
<rect x="390.0" y="284.0" width="620.0" height="11.0" rx="6.0" fill="#f1f5f9"/>
<rect x="390.0" y="284.0" width="102.5" height="11.0" rx="6.0" fill="#be123c"/>
<rect x="390.0" y="302.0" width="620.0" height="13.0" rx="7.0" fill="#f1f5f9"/>
<rect x="390.0" y="302.0" width="351.0" height="13.0" rx="7.0" fill="#2563eb"/>
<text x="1040.0" y="301.0" class="value">16.54 -&gt; 56.62 (+40.08)</text>
<text x="72.0" y="354.0" class="label">Grok 4.3</text>
<rect x="390.0" y="336.0" width="620.0" height="11.0" rx="6.0" fill="#f1f5f9"/>
<rect x="390.0" y="336.0" width="36.5" height="11.0" rx="6.0" fill="#be123c"/>
<rect x="390.0" y="354.0" width="620.0" height="13.0" rx="7.0" fill="#f1f5f9"/>
<rect x="390.0" y="354.0" width="267.5" height="13.0" rx="7.0" fill="#2563eb"/>
<text x="1040.0" y="353.0" class="value">5.89 -&gt; 43.15 (+37.26)</text>
<rect x="64.0" y="374.0" width="1230.0" height="46.0" rx="0.0" fill="#f8fafc"/>
<text x="72.0" y="406.0" class="label">DeepSeek V4 Flash</text>
<rect x="390.0" y="388.0" width="620.0" height="11.0" rx="6.0" fill="#f1f5f9"/>
<rect x="390.0" y="388.0" width="56.2" height="11.0" rx="6.0" fill="#be123c"/>
<rect x="390.0" y="406.0" width="620.0" height="13.0" rx="7.0" fill="#f1f5f9"/>
<rect x="390.0" y="406.0" width="218.6" height="13.0" rx="7.0" fill="#2563eb"/>
<text x="1040.0" y="405.0" class="value">9.07 -&gt; 35.26 (+26.19)</text>
<text x="72.0" y="458.0" class="label">DeepSeek V4 Flash thinking</text>
<rect x="390.0" y="440.0" width="620.0" height="11.0" rx="6.0" fill="#f1f5f9"/>
<rect x="390.0" y="440.0" width="57.7" height="11.0" rx="6.0" fill="#be123c"/>
<rect x="390.0" y="458.0" width="620.0" height="13.0" rx="7.0" fill="#f1f5f9"/>
<rect x="390.0" y="458.0" width="251.2" height="13.0" rx="7.0" fill="#2563eb"/>
<text x="1040.0" y="457.0" class="value">9.31 -&gt; 40.51 (+31.20)</text>
<circle cx="72.0" cy="600.0" r="7.0" fill="#be123c" stroke="#ffffff" stroke-width="2.0"/>
<text x="88.0" y="604.0" class="axis">Empty instructions</text>
<circle cx="248.0" cy="600.0" r="7.0" fill="#2563eb" stroke="#ffffff" stroke-width="2.0"/>
<text x="264.0" y="604.0" class="axis">With instructions v4.13</text>
<text x="72.0" y="640.0" class="small">The GPT-5.6 Sol row uses the same model family as the fixed quality judge; this is instruction-lift evidence, not a cross-model leaderboard.</text>
<text x="72.0" y="662.0" class="small">Grok Build is excluded because repeated transport failures prevented a clean primary pair.</text>
<line x1="32.0" y1="694.0" x2="1328.0" y2="694.0" stroke="#e5e7eb" stroke-width="1"/>
<text x="32.0" y="712.0" class="small">Scope: blinded With instructions v4.13 vs Empty instructions dual-order quality, 50 cases, 6 model/runner rows; fixed gpt-5.6-sol-medium judge; order-sensitive verdicts are separate; no reference rows. Pre-semantic-alternative scorer snapshot.</text>
<text x="32.0" y="724.0" class="small">Source: canonical per-model dual-order-summary.json all-case balanced scores.</text>
<text x="1328.0" y="724.0" class="small" text-anchor="end">Generated by scripts/build_readme_infographics.py</text>
</svg>
