<svg xmlns="http://www.w3.org/2000/svg" width="1360" height="720" viewBox="0 0 1360 720" role="img" aria-labelledby="title desc">
<title id="title">Quality-only comparisons after hard gates pass</title>
<desc id="desc">Only cases where both sides passed deterministic hard gates are included.</desc>
<style>
text{font-family:-apple-system,BlinkMacSystemFont,'Segoe UI',sans-serif;letter-spacing:0}
.title{font-size:30px;font-weight:700;fill:#111827}
.subtitle{font-size:15px;fill:#64748b}
.label{font-size:14px;font-weight:700;fill:#111827}
.small{font-size:12px;fill:#64748b}
.value{font-size:13px;font-weight:700;fill:#111827}
.axis{font-size:11px;fill:#64748b}
.cell{font-size:11px;font-weight:700;fill:#111827}
</style>
<rect x="0" y="0" width="1360" height="720" fill="#f8fafc"/>
<text x="40.0" y="56.0" class="title">Quality-only small multiples</text>
<text x="40.0" y="84.0" class="subtitle">Hard failures are excluded. Triplets are left wins / ties / right wins, with n=pass/pass overlap.</text>
<rect x="40.0" y="116.0" width="390.0" height="450.0" rx="10.0" fill="#ffffff" stroke="#cbd5e1"/>
<text x="72.0" y="152.0" class="label">Current vs empty</text>
<text x="72.0" y="202.0" class="label">GPT</text>
<rect x="190.0" y="188.0" width="117.7" height="18.0" rx="4.0" fill="#2563eb"/>
<rect x="307.7" y="188.0" width="10.7" height="18.0" rx="4.0" fill="#f59e0b"/>
<rect x="318.4" y="188.0" width="3.6" height="18.0" rx="4.0" fill="#be123c"/>
<rect x="190.0" y="188.0" width="132.0" height="18.0" rx="4.0" fill="none" stroke="#e5e7eb"/>
<text x="336.0" y="202.0" class="value">33/3/1</text>
<text x="190.0" y="228.0" class="small">n=37, avg +3.2</text>
<text x="72.0" y="232.0" class="label">GLM</text>
<rect x="190.0" y="218.0" width="132.0" height="18.0" rx="4.0" fill="#2563eb"/>
<rect x="190.0" y="218.0" width="132.0" height="18.0" rx="4.0" fill="none" stroke="#e5e7eb"/>
<text x="336.0" y="232.0" class="value">16/0/0</text>
<text x="190.0" y="258.0" class="small">n=16, avg +9.1</text>
<text x="72.0" y="262.0" class="label">Grok 4.3</text>
<rect x="190.0" y="248.0" width="99.0" height="18.0" rx="4.0" fill="#2563eb"/>
<rect x="289.0" y="248.0" width="33.0" height="18.0" rx="4.0" fill="#f59e0b"/>
<rect x="190.0" y="248.0" width="132.0" height="18.0" rx="4.0" fill="none" stroke="#e5e7eb"/>
<text x="336.0" y="262.0" class="value">3/1/0</text>
<text x="190.0" y="288.0" class="small">n=4, avg +5.2</text>
<text x="72.0" y="292.0" class="label">Grok Build</text>
<rect x="190.0" y="278.0" width="115.5" height="18.0" rx="4.0" fill="#2563eb"/>
<rect x="305.5" y="278.0" width="16.5" height="18.0" rx="4.0" fill="#be123c"/>
<rect x="190.0" y="278.0" width="132.0" height="18.0" rx="4.0" fill="none" stroke="#e5e7eb"/>
<text x="336.0" y="292.0" class="value">7/0/1</text>
<text x="190.0" y="318.0" class="small">n=8, avg +16.8</text>
<text x="72.0" y="322.0" class="label">DeepSeek</text>
<rect x="190.0" y="308.0" width="79.2" height="18.0" rx="4.0" fill="#2563eb"/>
<rect x="269.2" y="308.0" width="52.8" height="18.0" rx="4.0" fill="#f59e0b"/>
<rect x="190.0" y="308.0" width="132.0" height="18.0" rx="4.0" fill="none" stroke="#e5e7eb"/>
<text x="336.0" y="322.0" class="value">3/2/0</text>
<text x="190.0" y="348.0" class="small">n=5, avg +9.4</text>
<text x="72.0" y="352.0" class="label">DS thinking</text>
<rect x="190.0" y="338.0" width="113.1" height="18.0" rx="4.0" fill="#2563eb"/>
<rect x="303.1" y="338.0" width="18.9" height="18.0" rx="4.0" fill="#be123c"/>
<rect x="190.0" y="338.0" width="132.0" height="18.0" rx="4.0" fill="none" stroke="#e5e7eb"/>
<text x="336.0" y="352.0" class="value">6/0/1</text>
<text x="190.0" y="378.0" class="small">n=7, avg +6.6</text>
<text x="72.0" y="530.0" class="axis">current / tie / empty</text>
<rect x="460.0" y="116.0" width="390.0" height="450.0" rx="10.0" fill="#ffffff" stroke="#cbd5e1"/>
<text x="492.0" y="152.0" class="label">External model vs GPT</text>
<text x="492.0" y="202.0" class="label">GLM</text>
<rect x="610.0" y="188.0" width="63.1" height="18.0" rx="4.0" fill="#2563eb"/>
<rect x="673.1" y="188.0" width="20.1" height="18.0" rx="4.0" fill="#f59e0b"/>
<rect x="693.2" y="188.0" width="48.8" height="18.0" rx="4.0" fill="#be123c"/>
<rect x="610.0" y="188.0" width="132.0" height="18.0" rx="4.0" fill="none" stroke="#e5e7eb"/>
<text x="756.0" y="202.0" class="value">22/7/17</text>
<text x="610.0" y="228.0" class="small">n=46, avg -0.3</text>
<text x="492.0" y="256.0" class="label">Grok 4.3</text>
<rect x="610.0" y="242.0" width="132.0" height="18.0" rx="4.0" fill="#be123c"/>
<rect x="610.0" y="242.0" width="132.0" height="18.0" rx="4.0" fill="none" stroke="#e5e7eb"/>
<text x="756.0" y="256.0" class="value">0/0/33</text>
<text x="610.0" y="282.0" class="small">n=33, avg -8.4</text>
<text x="492.0" y="310.0" class="label">Grok Build</text>
<rect x="610.0" y="296.0" width="8.5" height="18.0" rx="4.0" fill="#2563eb"/>
<rect x="618.5" y="296.0" width="21.3" height="18.0" rx="4.0" fill="#f59e0b"/>
<rect x="639.8" y="296.0" width="102.2" height="18.0" rx="4.0" fill="#be123c"/>
<rect x="610.0" y="296.0" width="132.0" height="18.0" rx="4.0" fill="none" stroke="#e5e7eb"/>
<text x="756.0" y="310.0" class="value">2/5/24</text>
<text x="610.0" y="336.0" class="small">n=31, avg -5.0</text>
<text x="492.0" y="364.0" class="label">DeepSeek</text>
<rect x="610.0" y="350.0" width="132.0" height="18.0" rx="4.0" fill="#be123c"/>
<rect x="610.0" y="350.0" width="132.0" height="18.0" rx="4.0" fill="none" stroke="#e5e7eb"/>
<text x="756.0" y="364.0" class="value">0/0/31</text>
<text x="610.0" y="390.0" class="small">n=31, avg -9.3</text>
<text x="492.0" y="418.0" class="label">DS thinking</text>
<rect x="610.0" y="404.0" width="3.9" height="18.0" rx="4.0" fill="#f59e0b"/>
<rect x="613.9" y="404.0" width="128.1" height="18.0" rx="4.0" fill="#be123c"/>
<rect x="610.0" y="404.0" width="132.0" height="18.0" rx="4.0" fill="none" stroke="#e5e7eb"/>
<text x="756.0" y="418.0" class="value">0/1/33</text>
<text x="610.0" y="444.0" class="small">n=34, avg -9.7</text>
<text x="492.0" y="530.0" class="axis">external / tie / GPT</text>
<rect x="880.0" y="116.0" width="390.0" height="450.0" rx="10.0" fill="#ffffff" stroke="#cbd5e1"/>
<text x="912.0" y="152.0" class="label">Current vs references</text>
<text x="912.0" y="202.0" class="label">OH</text>
<rect x="1030.0" y="188.0" width="85.6" height="18.0" rx="4.0" fill="#2563eb"/>
<rect x="1115.6" y="188.0" width="21.4" height="18.0" rx="4.0" fill="#f59e0b"/>
<rect x="1137.0" y="188.0" width="25.0" height="18.0" rx="4.0" fill="#be123c"/>
<rect x="1030.0" y="188.0" width="132.0" height="18.0" rx="4.0" fill="none" stroke="#e5e7eb"/>
<text x="1176.0" y="202.0" class="value">24/6/7</text>
<text x="1030.0" y="218.0" class="small">n=37, avg +1.5</text>
<text x="912.0" y="232.0" class="label">OH</text>
<rect x="1030.0" y="218.0" width="67.9" height="18.0" rx="4.0" fill="#2563eb"/>
<rect x="1097.9" y="218.0" width="26.4" height="18.0" rx="4.0" fill="#f59e0b"/>
<rect x="1124.3" y="218.0" width="37.7" height="18.0" rx="4.0" fill="#be123c"/>
<rect x="1030.0" y="218.0" width="132.0" height="18.0" rx="4.0" fill="none" stroke="#e5e7eb"/>
<text x="1176.0" y="232.0" class="value">18/7/10</text>
<text x="1030.0" y="248.0" class="small">n=35, avg +0.5</text>
<text x="912.0" y="262.0" class="label">OH</text>
<rect x="1030.0" y="248.0" width="11.0" height="18.0" rx="4.0" fill="#f59e0b"/>
<rect x="1041.0" y="248.0" width="121.0" height="18.0" rx="4.0" fill="#be123c"/>
<rect x="1030.0" y="248.0" width="132.0" height="18.0" rx="4.0" fill="none" stroke="#e5e7eb"/>
<text x="1176.0" y="262.0" class="value">0/2/22</text>
<text x="1030.0" y="278.0" class="small">n=24, avg -7.6</text>
<text x="912.0" y="292.0" class="label">OH</text>
<rect x="1030.0" y="278.0" width="11.0" height="18.0" rx="4.0" fill="#2563eb"/>
<rect x="1041.0" y="278.0" width="11.0" height="18.0" rx="4.0" fill="#f59e0b"/>
<rect x="1052.0" y="278.0" width="110.0" height="18.0" rx="4.0" fill="#be123c"/>
<rect x="1030.0" y="278.0" width="132.0" height="18.0" rx="4.0" fill="none" stroke="#e5e7eb"/>
<text x="1176.0" y="292.0" class="value">2/2/20</text>
<text x="1030.0" y="308.0" class="small">n=24, avg -6.7</text>
<text x="912.0" y="322.0" class="label">OH</text>
<rect x="1030.0" y="308.0" width="4.9" height="18.0" rx="4.0" fill="#2563eb"/>
<rect x="1034.9" y="308.0" width="4.9" height="18.0" rx="4.0" fill="#f59e0b"/>
<rect x="1039.8" y="308.0" width="122.2" height="18.0" rx="4.0" fill="#be123c"/>
<rect x="1030.0" y="308.0" width="132.0" height="18.0" rx="4.0" fill="none" stroke="#e5e7eb"/>
<text x="1176.0" y="322.0" class="value">1/1/25</text>
<text x="1030.0" y="338.0" class="small">n=27, avg -9.0</text>
<text x="912.0" y="352.0" class="label">OH</text>
<rect x="1030.0" y="338.0" width="5.3" height="18.0" rx="4.0" fill="#2563eb"/>
<rect x="1035.3" y="338.0" width="126.7" height="18.0" rx="4.0" fill="#be123c"/>
<rect x="1030.0" y="338.0" width="132.0" height="18.0" rx="4.0" fill="none" stroke="#e5e7eb"/>
<text x="1176.0" y="352.0" class="value">1/0/24</text>
<text x="1030.0" y="368.0" class="small">n=25, avg -9.3</text>
<text x="912.0" y="382.0" class="label">Fable</text>
<rect x="1030.0" y="368.0" width="100.7" height="18.0" rx="4.0" fill="#2563eb"/>
<rect x="1130.7" y="368.0" width="24.3" height="18.0" rx="4.0" fill="#f59e0b"/>
<rect x="1155.1" y="368.0" width="6.9" height="18.0" rx="4.0" fill="#be123c"/>
<rect x="1030.0" y="368.0" width="132.0" height="18.0" rx="4.0" fill="none" stroke="#e5e7eb"/>
<text x="1176.0" y="382.0" class="value">29/7/2</text>
<text x="1030.0" y="398.0" class="small">n=38, avg +2.6</text>
<text x="912.0" y="412.0" class="label">Fable</text>
<rect x="1030.0" y="398.0" width="71.4" height="18.0" rx="4.0" fill="#2563eb"/>
<rect x="1101.4" y="398.0" width="14.3" height="18.0" rx="4.0" fill="#f59e0b"/>
<rect x="1115.6" y="398.0" width="46.4" height="18.0" rx="4.0" fill="#be123c"/>
<rect x="1030.0" y="398.0" width="132.0" height="18.0" rx="4.0" fill="none" stroke="#e5e7eb"/>
<text x="1176.0" y="412.0" class="value">20/4/13</text>
<text x="1030.0" y="428.0" class="small">n=37, avg -0.2</text>
<text x="912.0" y="442.0" class="label">Fable</text>
<rect x="1030.0" y="428.0" width="5.1" height="18.0" rx="4.0" fill="#2563eb"/>
<rect x="1035.1" y="428.0" width="10.2" height="18.0" rx="4.0" fill="#f59e0b"/>
<rect x="1045.2" y="428.0" width="116.8" height="18.0" rx="4.0" fill="#be123c"/>
<rect x="1030.0" y="428.0" width="132.0" height="18.0" rx="4.0" fill="none" stroke="#e5e7eb"/>
<text x="1176.0" y="442.0" class="value">1/2/23</text>
<text x="1030.0" y="458.0" class="small">n=26, avg -8.9</text>
<text x="912.0" y="472.0" class="label">Fable</text>
<rect x="1030.0" y="458.0" width="31.9" height="18.0" rx="4.0" fill="#2563eb"/>
<rect x="1061.9" y="458.0" width="13.7" height="18.0" rx="4.0" fill="#f59e0b"/>
<rect x="1075.5" y="458.0" width="86.5" height="18.0" rx="4.0" fill="#be123c"/>
<rect x="1030.0" y="458.0" width="132.0" height="18.0" rx="4.0" fill="none" stroke="#e5e7eb"/>
<text x="1176.0" y="472.0" class="value">7/3/19</text>
<text x="1030.0" y="488.0" class="small">n=29, avg -4.1</text>
<text x="912.0" y="502.0" class="label">Fable</text>
<rect x="1030.0" y="488.0" width="5.5" height="18.0" rx="4.0" fill="#2563eb"/>
<rect x="1035.5" y="488.0" width="11.0" height="18.0" rx="4.0" fill="#f59e0b"/>
<rect x="1046.5" y="488.0" width="115.5" height="18.0" rx="4.0" fill="#be123c"/>
<rect x="1030.0" y="488.0" width="132.0" height="18.0" rx="4.0" fill="none" stroke="#e5e7eb"/>
<text x="1176.0" y="502.0" class="value">1/2/21</text>
<text x="1030.0" y="518.0" class="small">n=24, avg -6.2</text>
<text x="912.0" y="532.0" class="label">Fable</text>
<rect x="1030.0" y="518.0" width="9.8" height="18.0" rx="4.0" fill="#2563eb"/>
<rect x="1039.8" y="518.0" width="9.8" height="18.0" rx="4.0" fill="#f59e0b"/>
<rect x="1049.6" y="518.0" width="112.4" height="18.0" rx="4.0" fill="#be123c"/>
<rect x="1030.0" y="518.0" width="132.0" height="18.0" rx="4.0" fill="none" stroke="#e5e7eb"/>
<text x="1176.0" y="532.0" class="value">2/2/23</text>
<text x="1030.0" y="548.0" class="small">n=27, avg -7.7</text>
<text x="912.0" y="530.0" class="axis">current / tie / reference</text>
<text x="72.0" y="625.0" class="label">Use this chart for quality-only reads; hard-gate misses are shown in the other charts and still matter.</text>
<line x1="32.0" y1="662.0" x2="1328.0" y2="662.0" stroke="#e5e7eb" stroke-width="1"/>
<text x="32.0" y="680.0" class="small">Scope: 50-case saved hard-gate and quality snapshot; all-model reference rows included.</text>
<text x="32.0" y="692.0" class="small">Source: saved quality reports filtered to both sides passed.</text>
<text x="1328.0" y="692.0" class="small" text-anchor="end">Generated by scripts/build_readme_infographics.py</text>
</svg>
