<svg xmlns="http://www.w3.org/2000/svg" width="1120" height="560" viewBox="0 0 1120 560" role="img" aria-labelledby="title desc">
<title id="title">Reference prompt comparison</title>
<desc id="desc">Current instruction bundle compared with OpenHands and Claude/Fable reference prompts.</desc>
<style>
text{font-family:-apple-system,BlinkMacSystemFont,'Segoe UI',sans-serif}
.title{font-size:30px;font-weight:700;fill:#0f172a}
.subtitle{font-size:15px;fill:#64748b}
.label{font-size:14px;font-weight:600;fill:#0f172a}
.small{font-size:12px;fill:#64748b}
.value{font-size:13px;font-weight:700;fill:#0f172a}
.pill{font-size:12px;font-weight:700;fill:#0f172a}
.axis{font-size:11px;fill:#64748b}
</style>
<rect x="0" y="0" width="1120" height="560" rx="0" fill="#f8fafc"/>
<text x="40.0" y="56.0" class="title">Reference prompt comparison</text>
<text x="40.0" y="84.0" class="subtitle">Current keeps the aggregate edge, while references identify targeted watchlist cases.</text>
<rect x="40.0" y="118.0" width="500.0" height="330.0" rx="12.0" fill="#ffffff" stroke="#cbd5e1"/>
<text x="70.0" y="160.0" class="label">OpenHands AGENTS.md</text>
<text x="70.0" y="184.0" class="small">Hard gates: current 42/49 vs reference 32/49</text>
<rect x="70.0" y="210.0" width="355.0" height="16.0" rx="8.0" fill="#f1f5f9"/>
<rect x="70.0" y="210.0" width="231.8" height="16.0" rx="8.0" fill="#7c3aed"/>
<text x="443.0" y="223.0" class="value">ref 32</text>
<rect x="70.0" y="238.0" width="355.0" height="16.0" rx="8.0" fill="#f1f5f9"/>
<rect x="70.0" y="238.0" width="304.3" height="16.0" rx="8.0" fill="#2563eb"/>
<text x="443.0" y="251.0" class="value">cur 42</text>
<text x="70.0" y="292.0" class="label">Quality outcomes</text>
<rect x="70.0" y="313.0" width="231.8" height="22.0" rx="5.0" fill="#2563eb"/>
<rect x="301.8" y="313.0" width="72.4" height="22.0" rx="5.0" fill="#f59e0b"/>
<rect x="374.3" y="313.0" width="7.2" height="22.0" rx="5.0" fill="#7c3aed"/>
<rect x="381.5" y="313.0" width="43.5" height="22.0" rx="5.0" fill="#cbd5e1"/>
<rect x="70.0" y="313.0" width="355.0" height="22.0" rx="5.0" fill="none" stroke="#e5e7eb"/>
<text x="70.0" y="366.0" class="small">current wins 32</text>
<text x="195.0" y="366.0" class="small">ties 10</text>
<text x="265.0" y="366.0" class="small">reference wins 1</text>
<text x="410.0" y="366.0" class="small">inconclusive 6</text>
<rect x="70.0" y="398.0" width="116.0" height="24.0" rx="12.0" fill="#dcfce7"/>
<text x="128.0" y="414.0" class="pill" text-anchor="middle">avg delta +22.1</text>
<text x="205.0" y="415.0" class="small">Reference win: skill-invocation-trigger-controls</text>
<rect x="580.0" y="118.0" width="500.0" height="330.0" rx="12.0" fill="#ffffff" stroke="#cbd5e1"/>
<text x="610.0" y="160.0" class="label">Claude/Fable prompt</text>
<text x="610.0" y="184.0" class="small">Hard gates: current 44/49 vs reference 34/49</text>
<rect x="610.0" y="210.0" width="355.0" height="16.0" rx="8.0" fill="#f1f5f9"/>
<rect x="610.0" y="210.0" width="246.3" height="16.0" rx="8.0" fill="#7c3aed"/>
<text x="983.0" y="223.0" class="value">ref 34</text>
<rect x="610.0" y="238.0" width="355.0" height="16.0" rx="8.0" fill="#f1f5f9"/>
<rect x="610.0" y="238.0" width="318.8" height="16.0" rx="8.0" fill="#2563eb"/>
<text x="983.0" y="251.0" class="value">cur 44</text>
<text x="610.0" y="292.0" class="label">Quality outcomes</text>
<rect x="610.0" y="313.0" width="268.1" height="22.0" rx="5.0" fill="#2563eb"/>
<rect x="878.1" y="313.0" width="14.5" height="22.0" rx="5.0" fill="#f59e0b"/>
<rect x="892.6" y="313.0" width="43.5" height="22.0" rx="5.0" fill="#7c3aed"/>
<rect x="936.0" y="313.0" width="29.0" height="22.0" rx="5.0" fill="#cbd5e1"/>
<rect x="610.0" y="313.0" width="355.0" height="22.0" rx="5.0" fill="none" stroke="#e5e7eb"/>
<text x="610.0" y="366.0" class="small">current wins 37</text>
<text x="735.0" y="366.0" class="small">ties 2</text>
<text x="805.0" y="366.0" class="small">reference wins 6</text>
<text x="950.0" y="366.0" class="small">inconclusive 4</text>
<rect x="610.0" y="398.0" width="116.0" height="24.0" rx="12.0" fill="#dcfce7"/>
<text x="668.0" y="414.0" class="pill" text-anchor="middle">avg delta +21.8</text>
<text x="745.0" y="415.0" class="small">Reference win: characterization-test-before-fix</text>
<line x1="32.0" y1="510.0" x2="1088.0" y2="510.0" stroke="#e5e7eb" stroke-width="1"/>
<text x="32.0" y="528.0" class="small">Source: reference quality.json comparison artifacts</text>
<text x="1088.0" y="528.0" class="small" text-anchor="end">Generated by scripts/build_readme_infographics.py</text>
</svg>
