<svg xmlns="http://www.w3.org/2000/svg" width="1280" height="690" viewBox="0 0 1280 690" role="img" aria-labelledby="title desc">
<title id="title">Current instructions versus reference bundles</title>
<desc id="desc">OpenHands and Claude/Fable baselines compared with all saved current runners on 50 cases.</desc>
<style>
text{font-family:-apple-system,BlinkMacSystemFont,'Segoe UI',sans-serif;letter-spacing:0}
.title{font-size:30px;font-weight:700;fill:#111827}
.subtitle{font-size:15px;fill:#64748b}
.label{font-size:14px;font-weight:700;fill:#111827}
.small{font-size:12px;fill:#64748b}
.value{font-size:13px;font-weight:700;fill:#111827}
.axis{font-size:11px;fill:#64748b}
.cell{font-size:11px;font-weight:700;fill:#111827}
</style>
<rect x="0" y="0" width="1280" height="690" fill="#f8fafc"/>
<text x="40.0" y="56.0" class="title">Current vs reference instruction bundles</text>
<text x="40.0" y="84.0" class="subtitle">Rows are saved comparisons: current runner vs reference bundle. Positive delta favors current.</text>
<rect x="40.0" y="112.0" width="1200.0" height="470.0" rx="10.0" fill="#ffffff" stroke="#cbd5e1"/>
<text x="72.0" y="150.0" class="axis">Reference</text>
<text x="190.0" y="150.0" class="axis">Runner</text>
<text x="386.0" y="150.0" class="axis">Hard gates</text>
<text x="570.0" y="150.0" class="axis">Current / tie / reference / inconclusive</text>
<text x="1060.0" y="150.0" class="axis" text-anchor="middle">Avg delta</text>
<rect x="64.0" y="164.0" width="1140.0" height="28.0" rx="0.0" fill="#f8fafc"/>
<text x="72.0" y="183.0" class="small">OpenHands</text>
<text x="190.0" y="183.0" class="label">GPT</text>
<text x="386.0" y="183.0" class="value">50/50 vs 37/50</text>
<rect x="570.0" y="168.0" width="236.8" height="18.0" rx="4.0" fill="#2563eb"/>
<rect x="806.8" y="168.0" width="38.4" height="18.0" rx="4.0" fill="#f59e0b"/>
<rect x="845.2" y="168.0" width="44.8" height="18.0" rx="4.0" fill="#be123c"/>
<rect x="570.0" y="168.0" width="320.0" height="18.0" rx="4.0" fill="none" stroke="#e5e7eb"/>
<text x="906.0" y="183.0" class="value">37/6/7/0</text>
<text x="1060.0" y="183.0" class="value" text-anchor="middle">+27.1</text>
<text x="72.0" y="214.0" class="small">OpenHands</text>
<text x="190.0" y="214.0" class="label">GLM</text>
<text x="386.0" y="214.0" class="value">45/50 vs 37/50</text>
<rect x="570.0" y="199.0" width="179.2" height="18.0" rx="4.0" fill="#2563eb"/>
<rect x="749.2" y="199.0" width="44.8" height="18.0" rx="4.0" fill="#f59e0b"/>
<rect x="794.0" y="199.0" width="76.8" height="18.0" rx="4.0" fill="#be123c"/>
<rect x="870.8" y="199.0" width="19.2" height="18.0" rx="4.0" fill="#cbd5e1"/>
<rect x="570.0" y="199.0" width="320.0" height="18.0" rx="4.0" fill="none" stroke="#e5e7eb"/>
<text x="906.0" y="214.0" class="value">28/7/12/3</text>
<text x="1060.0" y="214.0" class="value" text-anchor="middle">+16.3</text>
<rect x="64.0" y="226.0" width="1140.0" height="28.0" rx="0.0" fill="#f8fafc"/>
<text x="72.0" y="245.0" class="small">OpenHands</text>
<text x="190.0" y="245.0" class="label">Grok 4.3</text>
<text x="386.0" y="245.0" class="value">35/50 vs 37/50</text>
<rect x="570.0" y="230.0" width="70.4" height="18.0" rx="4.0" fill="#2563eb"/>
<rect x="640.4" y="230.0" width="12.8" height="18.0" rx="4.0" fill="#f59e0b"/>
<rect x="653.2" y="230.0" width="224.0" height="18.0" rx="4.0" fill="#be123c"/>
<rect x="877.2" y="230.0" width="12.8" height="18.0" rx="4.0" fill="#cbd5e1"/>
<rect x="570.0" y="230.0" width="320.0" height="18.0" rx="4.0" fill="none" stroke="#e5e7eb"/>
<text x="906.0" y="245.0" class="value">11/2/35/2</text>
<text x="1060.0" y="245.0" class="value" text-anchor="middle">-7.7</text>
<text x="72.0" y="276.0" class="small">OpenHands</text>
<text x="190.0" y="276.0" class="label">Grok Build</text>
<text x="386.0" y="276.0" class="value">32/50 vs 37/50</text>
<rect x="570.0" y="261.0" width="64.0" height="18.0" rx="4.0" fill="#2563eb"/>
<rect x="634.0" y="261.0" width="12.8" height="18.0" rx="4.0" fill="#f59e0b"/>
<rect x="646.8" y="261.0" width="211.2" height="18.0" rx="4.0" fill="#be123c"/>
<rect x="858.0" y="261.0" width="32.0" height="18.0" rx="4.0" fill="#cbd5e1"/>
<rect x="570.0" y="261.0" width="320.0" height="18.0" rx="4.0" fill="none" stroke="#e5e7eb"/>
<text x="906.0" y="276.0" class="value">10/2/33/5</text>
<text x="1060.0" y="276.0" class="value" text-anchor="middle">-13.2</text>
<rect x="64.0" y="288.0" width="1140.0" height="28.0" rx="0.0" fill="#f8fafc"/>
<text x="72.0" y="307.0" class="small">OpenHands</text>
<text x="190.0" y="307.0" class="label">DeepSeek</text>
<text x="386.0" y="307.0" class="value">37/50 vs 37/50</text>
<rect x="570.0" y="292.0" width="70.4" height="18.0" rx="4.0" fill="#2563eb"/>
<rect x="640.4" y="292.0" width="6.4" height="18.0" rx="4.0" fill="#f59e0b"/>
<rect x="646.8" y="292.0" width="224.0" height="18.0" rx="4.0" fill="#be123c"/>
<rect x="870.8" y="292.0" width="19.2" height="18.0" rx="4.0" fill="#cbd5e1"/>
<rect x="570.0" y="292.0" width="320.0" height="18.0" rx="4.0" fill="none" stroke="#e5e7eb"/>
<text x="906.0" y="307.0" class="value">11/1/35/3</text>
<text x="1060.0" y="307.0" class="value" text-anchor="middle">-4.9</text>
<text x="72.0" y="338.0" class="small">OpenHands</text>
<text x="190.0" y="338.0" class="label">DS thinking</text>
<text x="386.0" y="338.0" class="value">31/50 vs 37/50</text>
<rect x="570.0" y="323.0" width="44.8" height="18.0" rx="4.0" fill="#2563eb"/>
<rect x="614.8" y="323.0" width="230.4" height="18.0" rx="4.0" fill="#be123c"/>
<rect x="845.2" y="323.0" width="44.8" height="18.0" rx="4.0" fill="#cbd5e1"/>
<rect x="570.0" y="323.0" width="320.0" height="18.0" rx="4.0" fill="none" stroke="#e5e7eb"/>
<text x="906.0" y="338.0" class="value">7/0/36/7</text>
<text x="1060.0" y="338.0" class="value" text-anchor="middle">-16.7</text>
<rect x="64.0" y="350.0" width="1140.0" height="28.0" rx="0.0" fill="#f8fafc"/>
<text x="72.0" y="369.0" class="small">Claude/Fable</text>
<text x="190.0" y="369.0" class="label">GPT</text>
<text x="386.0" y="369.0" class="value">49/50 vs 38/50</text>
<rect x="570.0" y="354.0" width="256.0" height="18.0" rx="4.0" fill="#2563eb"/>
<rect x="826.0" y="354.0" width="44.8" height="18.0" rx="4.0" fill="#f59e0b"/>
<rect x="870.8" y="354.0" width="12.8" height="18.0" rx="4.0" fill="#be123c"/>
<rect x="883.6" y="354.0" width="6.4" height="18.0" rx="4.0" fill="#cbd5e1"/>
<rect x="570.0" y="354.0" width="320.0" height="18.0" rx="4.0" fill="none" stroke="#e5e7eb"/>
<text x="906.0" y="369.0" class="value">40/7/2/1</text>
<text x="1060.0" y="369.0" class="value" text-anchor="middle">+24.0</text>
<text x="72.0" y="400.0" class="small">Claude/Fable</text>
<text x="190.0" y="400.0" class="label">GLM</text>
<text x="386.0" y="400.0" class="value">47/50 vs 38/50</text>
<rect x="570.0" y="385.0" width="192.0" height="18.0" rx="4.0" fill="#2563eb"/>
<rect x="762.0" y="385.0" width="25.6" height="18.0" rx="4.0" fill="#f59e0b"/>
<rect x="787.6" y="385.0" width="89.6" height="18.0" rx="4.0" fill="#be123c"/>
<rect x="877.2" y="385.0" width="12.8" height="18.0" rx="4.0" fill="#cbd5e1"/>
<rect x="570.0" y="385.0" width="320.0" height="18.0" rx="4.0" fill="none" stroke="#e5e7eb"/>
<text x="906.0" y="400.0" class="value">30/4/14/2</text>
<text x="1060.0" y="400.0" class="value" text-anchor="middle">+17.9</text>
<rect x="64.0" y="412.0" width="1140.0" height="28.0" rx="0.0" fill="#f8fafc"/>
<text x="72.0" y="431.0" class="small">Claude/Fable</text>
<text x="190.0" y="431.0" class="label">Grok 4.3</text>
<text x="386.0" y="431.0" class="value">34/50 vs 38/50</text>
<rect x="570.0" y="416.0" width="57.6" height="18.0" rx="4.0" fill="#2563eb"/>
<rect x="627.6" y="416.0" width="12.8" height="18.0" rx="4.0" fill="#f59e0b"/>
<rect x="640.4" y="416.0" width="224.0" height="18.0" rx="4.0" fill="#be123c"/>
<rect x="864.4" y="416.0" width="25.6" height="18.0" rx="4.0" fill="#cbd5e1"/>
<rect x="570.0" y="416.0" width="320.0" height="18.0" rx="4.0" fill="none" stroke="#e5e7eb"/>
<text x="906.0" y="431.0" class="value">9/2/35/4</text>
<text x="1060.0" y="431.0" class="value" text-anchor="middle">-12.6</text>
<text x="72.0" y="462.0" class="small">Claude/Fable</text>
<text x="190.0" y="462.0" class="label">Grok Build</text>
<text x="386.0" y="462.0" class="value">38/50 vs 38/50</text>
<rect x="570.0" y="447.0" width="102.4" height="18.0" rx="4.0" fill="#2563eb"/>
<rect x="672.4" y="447.0" width="19.2" height="18.0" rx="4.0" fill="#f59e0b"/>
<rect x="691.6" y="447.0" width="179.2" height="18.0" rx="4.0" fill="#be123c"/>
<rect x="870.8" y="447.0" width="19.2" height="18.0" rx="4.0" fill="#cbd5e1"/>
<rect x="570.0" y="447.0" width="320.0" height="18.0" rx="4.0" fill="none" stroke="#e5e7eb"/>
<text x="906.0" y="462.0" class="value">16/3/28/3</text>
<text x="1060.0" y="462.0" class="value" text-anchor="middle">-2.4</text>
<rect x="64.0" y="474.0" width="1140.0" height="28.0" rx="0.0" fill="#f8fafc"/>
<text x="72.0" y="493.0" class="small">Claude/Fable</text>
<text x="190.0" y="493.0" class="label">DeepSeek</text>
<text x="386.0" y="493.0" class="value">29/50 vs 38/50</text>
<rect x="570.0" y="478.0" width="38.4" height="18.0" rx="4.0" fill="#2563eb"/>
<rect x="608.4" y="478.0" width="12.8" height="18.0" rx="4.0" fill="#f59e0b"/>
<rect x="621.2" y="478.0" width="224.0" height="18.0" rx="4.0" fill="#be123c"/>
<rect x="845.2" y="478.0" width="44.8" height="18.0" rx="4.0" fill="#cbd5e1"/>
<rect x="570.0" y="478.0" width="320.0" height="18.0" rx="4.0" fill="none" stroke="#e5e7eb"/>
<text x="906.0" y="493.0" class="value">6/2/35/7</text>
<text x="1060.0" y="493.0" class="value" text-anchor="middle">-21.0</text>
<text x="72.0" y="524.0" class="small">Claude/Fable</text>
<text x="190.0" y="524.0" class="label">DS thinking</text>
<text x="386.0" y="524.0" class="value">31/50 vs 38/50</text>
<rect x="570.0" y="509.0" width="38.4" height="18.0" rx="4.0" fill="#2563eb"/>
<rect x="608.4" y="509.0" width="12.8" height="18.0" rx="4.0" fill="#f59e0b"/>
<rect x="621.2" y="509.0" width="217.6" height="18.0" rx="4.0" fill="#be123c"/>
<rect x="838.8" y="509.0" width="51.2" height="18.0" rx="4.0" fill="#cbd5e1"/>
<rect x="570.0" y="509.0" width="320.0" height="18.0" rx="4.0" fill="none" stroke="#e5e7eb"/>
<text x="906.0" y="524.0" class="value">6/2/34/8</text>
<text x="1060.0" y="524.0" class="value" text-anchor="middle">-18.1</text>
<text x="72.0" y="624.0" class="label">Grok Build rows include observed adapter/provider agent failures from the saved run; they are not smoothed.</text>
<line x1="32.0" y1="636.0" x2="1248.0" y2="636.0" stroke="#e5e7eb" stroke-width="1"/>
<text x="32.0" y="654.0" class="small">Scope: 50-case saved hard-gate and quality snapshot; all-model reference rows included.</text>
<text x="32.0" y="666.0" class="small">Source: all-model OpenHands/Fable 50-case saved-quality summaries.</text>
<text x="1248.0" y="666.0" class="small" text-anchor="end">Generated by scripts/build_readme_infographics.py</text>
</svg>
