<svg xmlns="http://www.w3.org/2000/svg" width="1120" height="850" viewBox="0 0 1120 850" role="img" aria-labelledby="title desc">
<title id="title">Current instructions versus reference instruction bundles</title>
<desc id="desc">OpenHands and Claude/Fable baselines compared with our current instructions on each model.</desc>
<style>
text{font-family:-apple-system,BlinkMacSystemFont,'Segoe UI',sans-serif;letter-spacing:0}
.title{font-size:30px;font-weight:700;fill:#111827}
.subtitle{font-size:15px;fill:#64748b}
.label{font-size:14px;font-weight:700;fill:#111827}
.small{font-size:12px;fill:#64748b}
.value{font-size:13px;font-weight:700;fill:#111827}
.axis{font-size:11px;fill:#64748b}
.cell{font-size:11px;font-weight:700;fill:#111827}
</style>
<rect x="0" y="0" width="1120" height="850" fill="#f8fafc"/>
<text x="40.0" y="56.0" class="title">Current vs reference instruction bundles</text>
<text x="40.0" y="84.0" class="subtitle">Our current bundle wins aggregate quality for every measured model/reference pair, with concrete caveats.</text>
<rect x="40.0" y="112.0" width="1040.0" height="650.0" rx="10.0" fill="#ffffff" stroke="#cbd5e1"/>
<text x="72.0" y="150.0" class="axis">Model / reference</text>
<text x="300.0" y="150.0" class="axis">Hard gates</text>
<text x="500.0" y="150.0" class="axis">Current / tie / reference / inconclusive</text>
<text x="932.0" y="150.0" class="axis" text-anchor="middle">Delta</text>
<text x="72.0" y="198.0" class="label">GPT vs OpenHands</text>
<text x="300.0" y="198.0" class="value">49/49 vs 40/49</text>
<rect x="500.0" y="184.0" width="261.2" height="18.0" rx="4.0" fill="#2563eb"/>
<rect x="761.2" y="184.0" width="26.1" height="18.0" rx="4.0" fill="#f59e0b"/>
<rect x="787.3" y="184.0" width="32.7" height="18.0" rx="4.0" fill="#be123c"/>
<rect x="500.0" y="184.0" width="320.0" height="18.0" rx="4.0" fill="none" stroke="#e5e7eb"/>
<text x="835.0" y="198.0" class="value">40/4/5/0</text>
<text x="932.0" y="198.0" class="value" text-anchor="middle">+20.2</text>
<text x="72.0" y="245.0" class="label">GPT vs Fable</text>
<text x="300.0" y="245.0" class="value">49/49 vs 36/49</text>
<rect x="500.0" y="231.0" width="248.2" height="18.0" rx="4.0" fill="#2563eb"/>
<rect x="748.2" y="231.0" width="52.2" height="18.0" rx="4.0" fill="#f59e0b"/>
<rect x="800.4" y="231.0" width="19.6" height="18.0" rx="4.0" fill="#be123c"/>
<rect x="500.0" y="231.0" width="320.0" height="18.0" rx="4.0" fill="none" stroke="#e5e7eb"/>
<text x="835.0" y="245.0" class="value">38/8/3/0</text>
<text x="932.0" y="245.0" class="value" text-anchor="middle">+28.1</text>
<text x="72.0" y="292.0" class="label">GLM vs OpenHands</text>
<text x="300.0" y="292.0" class="value">46/49 vs 16/49</text>
<rect x="500.0" y="278.0" width="280.8" height="18.0" rx="4.0" fill="#2563eb"/>
<rect x="780.8" y="278.0" width="6.5" height="18.0" rx="4.0" fill="#f59e0b"/>
<rect x="787.3" y="278.0" width="19.6" height="18.0" rx="4.0" fill="#be123c"/>
<rect x="806.9" y="278.0" width="13.1" height="18.0" rx="4.0" fill="#cbd5e1"/>
<rect x="500.0" y="278.0" width="320.0" height="18.0" rx="4.0" fill="none" stroke="#e5e7eb"/>
<text x="835.0" y="292.0" class="value">43/1/3/2</text>
<text x="932.0" y="292.0" class="value" text-anchor="middle">+62.4</text>
<text x="72.0" y="339.0" class="label">GLM vs Fable</text>
<text x="300.0" y="339.0" class="value">46/49 vs 19/49</text>
<rect x="500.0" y="325.0" width="267.8" height="18.0" rx="4.0" fill="#2563eb"/>
<rect x="767.8" y="325.0" width="19.6" height="18.0" rx="4.0" fill="#f59e0b"/>
<rect x="787.3" y="325.0" width="26.1" height="18.0" rx="4.0" fill="#be123c"/>
<rect x="813.5" y="325.0" width="6.5" height="18.0" rx="4.0" fill="#cbd5e1"/>
<rect x="500.0" y="325.0" width="320.0" height="18.0" rx="4.0" fill="none" stroke="#e5e7eb"/>
<text x="835.0" y="339.0" class="value">41/3/4/1</text>
<text x="932.0" y="339.0" class="value" text-anchor="middle">+56.7</text>
<text x="72.0" y="386.0" class="label">Grok Build vs OpenHands</text>
<text x="300.0" y="386.0" class="value">41/49 vs 16/49</text>
<rect x="500.0" y="372.0" width="261.2" height="18.0" rx="4.0" fill="#2563eb"/>
<rect x="761.2" y="372.0" width="19.6" height="18.0" rx="4.0" fill="#be123c"/>
<rect x="780.8" y="372.0" width="39.2" height="18.0" rx="4.0" fill="#cbd5e1"/>
<rect x="500.0" y="372.0" width="320.0" height="18.0" rx="4.0" fill="none" stroke="#e5e7eb"/>
<text x="835.0" y="386.0" class="value">40/0/3/6</text>
<text x="932.0" y="386.0" class="value" text-anchor="middle">+55.5</text>
<text x="970.0" y="386.0" class="small">2 provider residuals</text>
<text x="72.0" y="433.0" class="label">Grok Build vs Fable</text>
<text x="300.0" y="433.0" class="value">41/49 vs 13/49</text>
<rect x="500.0" y="419.0" width="248.2" height="18.0" rx="4.0" fill="#2563eb"/>
<rect x="748.2" y="419.0" width="6.5" height="18.0" rx="4.0" fill="#f59e0b"/>
<rect x="754.7" y="419.0" width="26.1" height="18.0" rx="4.0" fill="#be123c"/>
<rect x="780.8" y="419.0" width="39.2" height="18.0" rx="4.0" fill="#cbd5e1"/>
<rect x="500.0" y="419.0" width="320.0" height="18.0" rx="4.0" fill="none" stroke="#e5e7eb"/>
<text x="835.0" y="433.0" class="value">38/1/4/6</text>
<text x="932.0" y="433.0" class="value" text-anchor="middle">+59.7</text>
<text x="970.0" y="433.0" class="small">4 provider residuals</text>
<text x="72.0" y="480.0" class="label">Grok 4.3 vs OpenHands</text>
<text x="300.0" y="480.0" class="value">36/49 vs 8/49</text>
<rect x="500.0" y="466.0" width="228.6" height="18.0" rx="4.0" fill="#2563eb"/>
<rect x="728.6" y="466.0" width="6.5" height="18.0" rx="4.0" fill="#f59e0b"/>
<rect x="735.1" y="466.0" width="13.1" height="18.0" rx="4.0" fill="#be123c"/>
<rect x="748.2" y="466.0" width="71.8" height="18.0" rx="4.0" fill="#cbd5e1"/>
<rect x="500.0" y="466.0" width="320.0" height="18.0" rx="4.0" fill="none" stroke="#e5e7eb"/>
<text x="835.0" y="480.0" class="value">35/1/2/11</text>
<text x="932.0" y="480.0" class="value" text-anchor="middle">+58.3</text>
<text x="72.0" y="527.0" class="label">Grok 4.3 vs Fable</text>
<text x="300.0" y="527.0" class="value">36/49 vs 11/49</text>
<rect x="500.0" y="513.0" width="215.5" height="18.0" rx="4.0" fill="#2563eb"/>
<rect x="715.5" y="513.0" width="26.1" height="18.0" rx="4.0" fill="#be123c"/>
<rect x="741.6" y="513.0" width="78.4" height="18.0" rx="4.0" fill="#cbd5e1"/>
<rect x="500.0" y="513.0" width="320.0" height="18.0" rx="4.0" fill="none" stroke="#e5e7eb"/>
<text x="835.0" y="527.0" class="value">33/0/4/12</text>
<text x="932.0" y="527.0" class="value" text-anchor="middle">+52.3</text>
<text x="72.0" y="574.0" class="label">DeepSeek vs OpenHands</text>
<text x="300.0" y="574.0" class="value">30/49 vs 11/49</text>
<rect x="500.0" y="560.0" width="176.3" height="18.0" rx="4.0" fill="#2563eb"/>
<rect x="676.3" y="560.0" width="19.6" height="18.0" rx="4.0" fill="#be123c"/>
<rect x="695.9" y="560.0" width="124.1" height="18.0" rx="4.0" fill="#cbd5e1"/>
<rect x="500.0" y="560.0" width="320.0" height="18.0" rx="4.0" fill="none" stroke="#e5e7eb"/>
<text x="835.0" y="574.0" class="value">27/0/3/19</text>
<text x="932.0" y="574.0" class="value" text-anchor="middle">+39.3</text>
<text x="72.0" y="621.0" class="label">DeepSeek vs Fable</text>
<text x="300.0" y="621.0" class="value">30/49 vs 10/49</text>
<rect x="500.0" y="607.0" width="182.9" height="18.0" rx="4.0" fill="#2563eb"/>
<rect x="682.9" y="607.0" width="6.5" height="18.0" rx="4.0" fill="#f59e0b"/>
<rect x="689.4" y="607.0" width="13.1" height="18.0" rx="4.0" fill="#be123c"/>
<rect x="702.4" y="607.0" width="117.6" height="18.0" rx="4.0" fill="#cbd5e1"/>
<rect x="500.0" y="607.0" width="320.0" height="18.0" rx="4.0" fill="none" stroke="#e5e7eb"/>
<text x="835.0" y="621.0" class="value">28/1/2/18</text>
<text x="932.0" y="621.0" class="value" text-anchor="middle">+42.4</text>
<text x="72.0" y="668.0" class="label">DS thinking vs OpenHands</text>
<text x="300.0" y="668.0" class="value">30/49 vs 6/49</text>
<rect x="500.0" y="654.0" width="189.4" height="18.0" rx="4.0" fill="#2563eb"/>
<rect x="689.4" y="654.0" width="6.5" height="18.0" rx="4.0" fill="#f59e0b"/>
<rect x="695.9" y="654.0" width="6.5" height="18.0" rx="4.0" fill="#be123c"/>
<rect x="702.4" y="654.0" width="117.6" height="18.0" rx="4.0" fill="#cbd5e1"/>
<rect x="500.0" y="654.0" width="320.0" height="18.0" rx="4.0" fill="none" stroke="#e5e7eb"/>
<text x="835.0" y="668.0" class="value">29/1/1/18</text>
<text x="932.0" y="668.0" class="value" text-anchor="middle">+49.5</text>
<text x="72.0" y="715.0" class="label">DS thinking vs Fable</text>
<text x="300.0" y="715.0" class="value">30/49 vs 10/49</text>
<rect x="500.0" y="701.0" width="189.4" height="18.0" rx="4.0" fill="#2563eb"/>
<rect x="689.4" y="701.0" width="26.1" height="18.0" rx="4.0" fill="#be123c"/>
<rect x="715.5" y="701.0" width="104.5" height="18.0" rx="4.0" fill="#cbd5e1"/>
<rect x="500.0" y="701.0" width="320.0" height="18.0" rx="4.0" fill="none" stroke="#e5e7eb"/>
<text x="835.0" y="715.0" class="value">29/0/4/16</text>
<text x="932.0" y="715.0" class="value" text-anchor="middle">+41.9</text>
<rect x="72.0" y="794.0" width="12.0" height="12.0" rx="3.0" fill="#2563eb"/>
<text x="92.0" y="805.0" class="axis">current wins</text>
<rect x="176.0" y="794.0" width="12.0" height="12.0" rx="3.0" fill="#be123c"/>
<text x="196.0" y="805.0" class="axis">reference wins</text>
<rect x="306.0" y="794.0" width="12.0" height="12.0" rx="3.0" fill="#cbd5e1"/>
<text x="326.0" y="805.0" class="axis">fail/fail or residual</text>
<line x1="32.0" y1="794.0" x2="1088.0" y2="794.0" stroke="#e5e7eb" stroke-width="1"/>
<text x="32.0" y="812.0" class="small">Scope: v4.13 OpenAI-judged GPT/GLM/DeepSeek saved outputs; Grok/reference/no-instruction charts use labeled v4.12 saved snapshots.</text>
<text x="32.0" y="824.0" class="small">Source: current-vs-reference saved quality summaries</text>
<text x="1088.0" y="824.0" class="small" text-anchor="end">Generated by scripts/build_readme_infographics.py</text>
</svg>
